G04*
G04 #@! TF.GenerationSoftware,Altium Limited,Altium Designer,18.1.9 (240)*
G04*
G04 Layer_Physical_Order=2*
G04 Layer_Color=16711680*
%FSLAX25Y25*%
%MOIN*%
G70*
G01*
G75*
%ADD10C,0.00984*%
%ADD53C,0.07874*%
%ADD54C,0.06000*%
%ADD55R,0.07874X0.07874*%
G04:AMPARAMS|DCode=56|XSize=78.74mil|YSize=118.11mil|CornerRadius=19.68mil|HoleSize=0mil|Usage=FLASHONLY|Rotation=270.000|XOffset=0mil|YOffset=0mil|HoleType=Round|Shape=RoundedRectangle|*
%AMROUNDEDRECTD56*
21,1,0.07874,0.07874,0,0,270.0*
21,1,0.03937,0.11811,0,0,270.0*
1,1,0.03937,-0.03937,-0.01968*
1,1,0.03937,-0.03937,0.01968*
1,1,0.03937,0.03937,0.01968*
1,1,0.03937,0.03937,-0.01968*
%
%ADD56ROUNDEDRECTD56*%
%ADD57C,0.02362*%
G36*
X461952Y461991D02*
Y197890D01*
X181945D01*
Y461919D01*
X461598Y462344D01*
X461952Y461991D01*
D02*
G37*
%LPC*%
G36*
X223189Y448370D02*
X219646D01*
Y444016D01*
X225969D01*
Y445590D01*
X225874Y446310D01*
X225596Y446980D01*
X225154Y447556D01*
X224579Y447998D01*
X223908Y448276D01*
X223189Y448370D01*
D02*
G37*
G36*
X218858D02*
X215315D01*
X214596Y448276D01*
X213925Y447998D01*
X213349Y447556D01*
X212908Y446980D01*
X212630Y446310D01*
X212535Y445590D01*
Y444016D01*
X218858D01*
Y448370D01*
D02*
G37*
G36*
X225969Y443228D02*
X219646D01*
Y438874D01*
X223189D01*
X223908Y438969D01*
X224579Y439246D01*
X225154Y439688D01*
X225596Y440264D01*
X225874Y440934D01*
X225969Y441653D01*
Y443228D01*
D02*
G37*
G36*
X218858D02*
X212535D01*
Y441653D01*
X212630Y440934D01*
X212908Y440264D01*
X213349Y439688D01*
X213925Y439246D01*
X214596Y438969D01*
X215315Y438874D01*
X218858D01*
Y443228D01*
D02*
G37*
G36*
X311614Y423106D02*
X310908Y422966D01*
X310309Y422566D01*
X310201Y422404D01*
X298228D01*
X297791Y422317D01*
X297419Y422069D01*
X293286Y417935D01*
X293038Y417564D01*
X292951Y417126D01*
Y415193D01*
X292789Y415085D01*
X292675Y414916D01*
X278185D01*
X278077Y415077D01*
X277478Y415478D01*
X276772Y415618D01*
X276065Y415478D01*
X275466Y415077D01*
X275066Y414478D01*
X274925Y413772D01*
X275066Y413065D01*
X275466Y412466D01*
X275628Y412358D01*
Y402953D01*
X275715Y402515D01*
X275963Y402144D01*
X283049Y395057D01*
X283420Y394809D01*
X283858Y394722D01*
X392287D01*
X392395Y394561D01*
X392994Y394160D01*
X393701Y394020D01*
X394407Y394160D01*
X395006Y394561D01*
X395407Y395160D01*
X395547Y395866D01*
X395407Y396573D01*
X395268Y396781D01*
X395535Y397281D01*
X413306D01*
X417356Y393231D01*
Y386414D01*
X417194Y386306D01*
X417086Y386144D01*
X407500D01*
X407062Y386057D01*
X406691Y385809D01*
X388526Y367644D01*
X353414D01*
X353306Y367806D01*
X352707Y368206D01*
X352000Y368347D01*
X351293Y368206D01*
X350694Y367806D01*
X350294Y367207D01*
X350153Y366500D01*
X350294Y365793D01*
X350694Y365194D01*
X351293Y364794D01*
X352000Y364653D01*
X352707Y364794D01*
X353306Y365194D01*
X353414Y365356D01*
X362045D01*
Y330475D01*
X352559D01*
X352121Y330388D01*
X351750Y330140D01*
X327356Y305746D01*
X327165Y305784D01*
X326459Y305643D01*
X325860Y305243D01*
X325459Y304644D01*
X325319Y303937D01*
X325459Y303230D01*
X325860Y302631D01*
X326459Y302231D01*
X327165Y302091D01*
X327872Y302231D01*
X328471Y302631D01*
X328871Y303230D01*
X329012Y303937D01*
X328974Y304128D01*
X353033Y328187D01*
X362045D01*
Y326610D01*
X361883Y326502D01*
X361483Y325904D01*
X361343Y325197D01*
X361483Y324490D01*
X361883Y323891D01*
X362482Y323491D01*
X363189Y323350D01*
X363896Y323491D01*
X364495Y323891D01*
X364895Y324490D01*
X365036Y325197D01*
X364895Y325904D01*
X364495Y326502D01*
X364333Y326610D01*
Y329331D01*
Y365356D01*
X389000D01*
X389438Y365443D01*
X389809Y365691D01*
X407974Y383856D01*
X417086D01*
X417194Y383694D01*
X417793Y383294D01*
X418500Y383154D01*
X419207Y383294D01*
X419806Y383694D01*
X420206Y384293D01*
X420346Y385000D01*
X420206Y385707D01*
X419806Y386306D01*
X419644Y386414D01*
Y393705D01*
X419557Y394143D01*
X419309Y394514D01*
X414588Y399234D01*
X414217Y399482D01*
X413779Y399569D01*
X374569D01*
Y404689D01*
X374731Y404797D01*
X375131Y405396D01*
X375272Y406102D01*
X375131Y406809D01*
X374731Y407408D01*
X374132Y407808D01*
X373425Y407949D01*
X372719Y407808D01*
X372119Y407408D01*
X371719Y406809D01*
X371579Y406102D01*
X371719Y405396D01*
X372119Y404797D01*
X372281Y404689D01*
Y399569D01*
X360011D01*
X348338Y411242D01*
X347967Y411490D01*
X347529Y411577D01*
X329403D01*
X328856Y411942D01*
X328150Y412083D01*
X327443Y411942D01*
X326844Y411542D01*
X326444Y410943D01*
X326303Y410236D01*
X326444Y409530D01*
X326844Y408930D01*
X327443Y408530D01*
X328150Y408390D01*
X328856Y408530D01*
X329455Y408930D01*
X329695Y409289D01*
X347055D01*
X358728Y397616D01*
X358887Y397510D01*
X358735Y397010D01*
X284332D01*
X277916Y403427D01*
Y412358D01*
X278077Y412466D01*
X278185Y412628D01*
X292686D01*
X292789Y412474D01*
X293388Y412074D01*
X294094Y411933D01*
X294801Y412074D01*
X295400Y412474D01*
X295800Y413073D01*
X295941Y413779D01*
X295800Y414486D01*
X295400Y415085D01*
X295238Y415193D01*
Y416652D01*
X298702Y420116D01*
X310201D01*
X310309Y419954D01*
X310908Y419554D01*
X311614Y419413D01*
X312321Y419554D01*
X312920Y419954D01*
X313320Y420553D01*
X313461Y421260D01*
X313320Y421967D01*
X312920Y422566D01*
X312321Y422966D01*
X311614Y423106D01*
D02*
G37*
G36*
X233189Y418370D02*
X229646D01*
Y414016D01*
X235969D01*
Y415590D01*
X235874Y416310D01*
X235596Y416980D01*
X235155Y417556D01*
X234579Y417998D01*
X233908Y418275D01*
X233189Y418370D01*
D02*
G37*
G36*
X213189D02*
X209646D01*
Y414016D01*
X215969D01*
Y415590D01*
X215874Y416310D01*
X215596Y416980D01*
X215155Y417556D01*
X214579Y417998D01*
X213908Y418275D01*
X213189Y418370D01*
D02*
G37*
G36*
X228858D02*
X225315D01*
X224595Y418275D01*
X223925Y417998D01*
X223349Y417556D01*
X222908Y416980D01*
X222630Y416310D01*
X222535Y415590D01*
Y414016D01*
X228858D01*
Y418370D01*
D02*
G37*
G36*
X208858D02*
X205315D01*
X204595Y418275D01*
X203925Y417998D01*
X203349Y417556D01*
X202908Y416980D01*
X202630Y416310D01*
X202535Y415590D01*
Y414016D01*
X208858D01*
Y418370D01*
D02*
G37*
G36*
X402000Y420106D02*
X400808Y419949D01*
X399697Y419489D01*
X398743Y418757D01*
X398011Y417803D01*
X397551Y416692D01*
X397394Y415500D01*
X397551Y414308D01*
X398011Y413197D01*
X398743Y412243D01*
X399697Y411511D01*
X400808Y411051D01*
X402000Y410894D01*
X403192Y411051D01*
X404303Y411511D01*
X405257Y412243D01*
X405989Y413197D01*
X406449Y414308D01*
X406606Y415500D01*
X406449Y416692D01*
X405989Y417803D01*
X405257Y418757D01*
X404303Y419489D01*
X403192Y419949D01*
X402000Y420106D01*
D02*
G37*
G36*
X392000D02*
X390808Y419949D01*
X389697Y419489D01*
X388743Y418757D01*
X388011Y417803D01*
X387551Y416692D01*
X387394Y415500D01*
X387551Y414308D01*
X388011Y413197D01*
X388743Y412243D01*
X389697Y411511D01*
X390808Y411051D01*
X392000Y410894D01*
X393192Y411051D01*
X394303Y411511D01*
X395257Y412243D01*
X395989Y413197D01*
X396449Y414308D01*
X396606Y415500D01*
X396449Y416692D01*
X395989Y417803D01*
X395257Y418757D01*
X394303Y419489D01*
X393192Y419949D01*
X392000Y420106D01*
D02*
G37*
G36*
X382000D02*
X380808Y419949D01*
X379697Y419489D01*
X378743Y418757D01*
X378011Y417803D01*
X377551Y416692D01*
X377394Y415500D01*
X377551Y414308D01*
X378011Y413197D01*
X378743Y412243D01*
X379697Y411511D01*
X380808Y411051D01*
X382000Y410894D01*
X383192Y411051D01*
X384303Y411511D01*
X385257Y412243D01*
X385989Y413197D01*
X386449Y414308D01*
X386606Y415500D01*
X386449Y416692D01*
X385989Y417803D01*
X385257Y418757D01*
X384303Y419489D01*
X383192Y419949D01*
X382000Y420106D01*
D02*
G37*
G36*
X235969Y413228D02*
X229646D01*
Y408874D01*
X233189D01*
X233908Y408969D01*
X234579Y409246D01*
X235155Y409688D01*
X235596Y410264D01*
X235874Y410934D01*
X235969Y411654D01*
Y413228D01*
D02*
G37*
G36*
X228858D02*
X222535D01*
Y411654D01*
X222630Y410934D01*
X222908Y410264D01*
X223349Y409688D01*
X223925Y409246D01*
X224595Y408969D01*
X225315Y408874D01*
X228858D01*
Y413228D01*
D02*
G37*
G36*
X215969D02*
X209646D01*
Y408874D01*
X213189D01*
X213908Y408969D01*
X214579Y409246D01*
X215155Y409688D01*
X215596Y410264D01*
X215874Y410934D01*
X215969Y411654D01*
Y413228D01*
D02*
G37*
G36*
X208858D02*
X202535D01*
Y411654D01*
X202630Y410934D01*
X202908Y410264D01*
X203349Y409688D01*
X203925Y409246D01*
X204595Y408969D01*
X205315Y408874D01*
X208858D01*
Y413228D01*
D02*
G37*
G36*
X392394Y410213D02*
Y405894D01*
X396713D01*
X396603Y406733D01*
X396127Y407883D01*
X395370Y408870D01*
X394383Y409627D01*
X393233Y410103D01*
X392394Y410213D01*
D02*
G37*
G36*
X381606D02*
X380767Y410103D01*
X379617Y409627D01*
X378630Y408870D01*
X377873Y407883D01*
X377397Y406733D01*
X377287Y405894D01*
X381606D01*
Y410213D01*
D02*
G37*
G36*
X402000Y410106D02*
X400808Y409949D01*
X399697Y409489D01*
X398743Y408757D01*
X398011Y407803D01*
X397551Y406692D01*
X397394Y405500D01*
X397551Y404308D01*
X398011Y403197D01*
X398743Y402243D01*
X399697Y401511D01*
X400808Y401051D01*
X402000Y400894D01*
X403192Y401051D01*
X404303Y401511D01*
X405257Y402243D01*
X405989Y403197D01*
X406449Y404308D01*
X406606Y405500D01*
X406449Y406692D01*
X405989Y407803D01*
X405257Y408757D01*
X404303Y409489D01*
X403192Y409949D01*
X402000Y410106D01*
D02*
G37*
G36*
X396713Y405106D02*
X392394D01*
Y400787D01*
X393233Y400897D01*
X394383Y401373D01*
X395370Y402131D01*
X396127Y403117D01*
X396603Y404267D01*
X396713Y405106D01*
D02*
G37*
G36*
X381606D02*
X377287D01*
X377397Y404267D01*
X377873Y403117D01*
X378630Y402131D01*
X379617Y401373D01*
X380767Y400897D01*
X381606Y400787D01*
Y405106D01*
D02*
G37*
G36*
X382394Y410213D02*
Y405500D01*
Y400787D01*
X383233Y400897D01*
X384383Y401373D01*
X385369Y402131D01*
X386127Y403117D01*
X386603Y404267D01*
X386718Y405144D01*
X386748Y405368D01*
X387252D01*
X387282Y405144D01*
X387397Y404267D01*
X387873Y403117D01*
X388631Y402131D01*
X389617Y401373D01*
X390767Y400897D01*
X391606Y400787D01*
Y405500D01*
Y410213D01*
X390767Y410103D01*
X389617Y409627D01*
X388631Y408870D01*
X387873Y407883D01*
X387397Y406733D01*
X387282Y405856D01*
X387252Y405632D01*
X386748D01*
X386718Y405856D01*
X386603Y406733D01*
X386127Y407883D01*
X385369Y408870D01*
X384383Y409627D01*
X383233Y410103D01*
X382394Y410213D01*
D02*
G37*
G36*
X283268Y389123D02*
Y384803D01*
X287587D01*
X287477Y385643D01*
X287001Y386792D01*
X286244Y387779D01*
X285257Y388536D01*
X284107Y389012D01*
X283268Y389123D01*
D02*
G37*
G36*
X282480D02*
X281641Y389012D01*
X280491Y388536D01*
X279504Y387779D01*
X278747Y386792D01*
X278271Y385643D01*
X278161Y384803D01*
X282480D01*
Y389123D01*
D02*
G37*
G36*
X344094Y383736D02*
X343388Y383596D01*
X342789Y383195D01*
X342681Y383034D01*
X333661D01*
X333224Y382947D01*
X332853Y382699D01*
X327479Y377325D01*
X311453D01*
X311345Y377487D01*
X310746Y377887D01*
X310039Y378028D01*
X309333Y377887D01*
X308734Y377487D01*
X308333Y376888D01*
X308193Y376181D01*
X308333Y375475D01*
X308734Y374875D01*
X309333Y374475D01*
X310039Y374335D01*
X310746Y374475D01*
X311345Y374875D01*
X311453Y375037D01*
X321441D01*
X321541Y374537D01*
X321169Y374383D01*
X320411Y373801D01*
X319829Y373043D01*
X319463Y372160D01*
X319339Y371213D01*
X319463Y370265D01*
X319829Y369382D01*
X320411Y368624D01*
X321169Y368042D01*
X322052Y367676D01*
X323000Y367551D01*
X323948Y367676D01*
X324831Y368042D01*
X325589Y368624D01*
X326171Y369382D01*
X326536Y370265D01*
X326661Y371213D01*
X326536Y372160D01*
X326171Y373043D01*
X325589Y373801D01*
X324831Y374383D01*
X324459Y374537D01*
X324559Y375037D01*
X327953D01*
X328391Y375124D01*
X328762Y375372D01*
X334135Y380746D01*
X342681D01*
X342789Y380584D01*
X343388Y380184D01*
X344094Y380043D01*
X344801Y380184D01*
X345400Y380584D01*
X345800Y381183D01*
X345941Y381890D01*
X345800Y382596D01*
X345400Y383195D01*
X344801Y383596D01*
X344094Y383736D01*
D02*
G37*
G36*
X292874Y389016D02*
X291682Y388859D01*
X290571Y388399D01*
X289617Y387667D01*
X288885Y386713D01*
X288425Y385602D01*
X288268Y384409D01*
X288425Y383217D01*
X288885Y382106D01*
X289617Y381152D01*
X290571Y380420D01*
X291682Y379960D01*
X292874Y379803D01*
X294066Y379960D01*
X295177Y380420D01*
X296131Y381152D01*
X296863Y382106D01*
X297323Y383217D01*
X297480Y384409D01*
X297323Y385602D01*
X296863Y386713D01*
X296131Y387667D01*
X295177Y388399D01*
X294066Y388859D01*
X292874Y389016D01*
D02*
G37*
G36*
X287587Y384016D02*
X283268D01*
Y379696D01*
X284107Y379807D01*
X285257Y380283D01*
X286244Y381040D01*
X287001Y382027D01*
X287477Y383176D01*
X287587Y384016D01*
D02*
G37*
G36*
X282480D02*
X278161D01*
X278271Y383176D01*
X278747Y382027D01*
X279504Y381040D01*
X280491Y380283D01*
X281641Y379807D01*
X282480Y379696D01*
Y384016D01*
D02*
G37*
G36*
X292874Y379016D02*
X291682Y378859D01*
X290571Y378399D01*
X289617Y377667D01*
X288885Y376713D01*
X288425Y375602D01*
X288268Y374410D01*
X288425Y373217D01*
X288885Y372106D01*
X289617Y371152D01*
X290571Y370420D01*
X291682Y369960D01*
X292874Y369803D01*
X294066Y369960D01*
X295177Y370420D01*
X296131Y371152D01*
X296863Y372106D01*
X297323Y373217D01*
X297480Y374410D01*
X297323Y375602D01*
X296863Y376713D01*
X296131Y377667D01*
X295177Y378399D01*
X294066Y378859D01*
X292874Y379016D01*
D02*
G37*
G36*
X282874D02*
X281682Y378859D01*
X280571Y378399D01*
X279617Y377667D01*
X278885Y376713D01*
X278425Y375602D01*
X278268Y374410D01*
X278425Y373217D01*
X278885Y372106D01*
X279617Y371152D01*
X280571Y370420D01*
X281682Y369960D01*
X282874Y369803D01*
X284066Y369960D01*
X285177Y370420D01*
X286131Y371152D01*
X286863Y372106D01*
X287323Y373217D01*
X287480Y374410D01*
X287323Y375602D01*
X286863Y376713D01*
X286131Y377667D01*
X285177Y378399D01*
X284066Y378859D01*
X282874Y379016D01*
D02*
G37*
G36*
X297441Y368976D02*
X288307D01*
Y359842D01*
X297441D01*
Y368976D01*
D02*
G37*
G36*
X282874Y369016D02*
X281682Y368859D01*
X280571Y368399D01*
X279617Y367667D01*
X278885Y366713D01*
X278425Y365602D01*
X278268Y364409D01*
X278425Y363217D01*
X278885Y362106D01*
X279617Y361152D01*
X280571Y360420D01*
X281682Y359960D01*
X282874Y359803D01*
X284066Y359960D01*
X285177Y360420D01*
X286131Y361152D01*
X286863Y362106D01*
X287323Y363217D01*
X287480Y364409D01*
X287323Y365602D01*
X286863Y366713D01*
X286131Y367667D01*
X285177Y368399D01*
X284066Y368859D01*
X282874Y369016D01*
D02*
G37*
G36*
X303543Y385902D02*
X302837Y385761D01*
X302238Y385361D01*
X301837Y384762D01*
X301697Y384055D01*
X301837Y383348D01*
X302238Y382749D01*
X302399Y382641D01*
Y371063D01*
X302486Y370625D01*
X302734Y370254D01*
X311593Y361396D01*
X311964Y361148D01*
X312402Y361061D01*
X343856D01*
Y356914D01*
X343694Y356806D01*
X343294Y356207D01*
X343154Y355500D01*
X343294Y354793D01*
X343694Y354194D01*
X344293Y353794D01*
X345000Y353654D01*
X345707Y353794D01*
X346306Y354194D01*
X346706Y354793D01*
X346847Y355500D01*
X346706Y356207D01*
X346306Y356806D01*
X346144Y356914D01*
Y362205D01*
Y375586D01*
X346306Y375694D01*
X346706Y376293D01*
X346847Y377000D01*
X346706Y377707D01*
X346306Y378306D01*
X345707Y378706D01*
X345000Y378847D01*
X344293Y378706D01*
X343694Y378306D01*
X343294Y377707D01*
X343154Y377000D01*
X343294Y376293D01*
X343694Y375694D01*
X343856Y375586D01*
Y363349D01*
X312876D01*
X304687Y371537D01*
Y382641D01*
X304849Y382749D01*
X305249Y383348D01*
X305390Y384055D01*
X305249Y384762D01*
X304849Y385361D01*
X304250Y385761D01*
X303543Y385902D01*
D02*
G37*
G36*
X323000Y355661D02*
X322052Y355537D01*
X321169Y355171D01*
X320411Y354589D01*
X319829Y353831D01*
X319463Y352948D01*
X319339Y352000D01*
X319463Y351052D01*
X319829Y350169D01*
X320411Y349411D01*
X321169Y348829D01*
X322052Y348464D01*
X323000Y348339D01*
X323948Y348464D01*
X324831Y348829D01*
X325589Y349411D01*
X326171Y350169D01*
X326536Y351052D01*
X326661Y352000D01*
X326536Y352948D01*
X326171Y353831D01*
X325589Y354589D01*
X324831Y355171D01*
X323948Y355537D01*
X323000Y355661D01*
D02*
G37*
G36*
X389697Y322882D02*
X388990Y322741D01*
X388391Y322341D01*
X387991Y321742D01*
X387850Y321035D01*
X387888Y320845D01*
X380688Y313644D01*
X350500D01*
X350062Y313557D01*
X349691Y313309D01*
X346691Y310309D01*
X346500Y310347D01*
X345793Y310206D01*
X345194Y309806D01*
X344794Y309207D01*
X344654Y308500D01*
X344794Y307793D01*
X345194Y307194D01*
X345793Y306794D01*
X346500Y306653D01*
X347207Y306794D01*
X347806Y307194D01*
X348206Y307793D01*
X348346Y308500D01*
X348309Y308691D01*
X350974Y311356D01*
X381161D01*
X381599Y311443D01*
X381970Y311691D01*
X389506Y319227D01*
X389697Y319189D01*
X390404Y319330D01*
X391002Y319730D01*
X391403Y320329D01*
X391543Y321035D01*
X391403Y321742D01*
X391002Y322341D01*
X390404Y322741D01*
X389697Y322882D01*
D02*
G37*
G36*
X444488Y303375D02*
X443893Y303296D01*
X442972Y302915D01*
X442181Y302308D01*
X441574Y301516D01*
X441192Y300595D01*
X441118Y300030D01*
X440613D01*
X440544Y300554D01*
X440179Y301437D01*
X439597Y302195D01*
X438838Y302777D01*
X437956Y303143D01*
X437008Y303268D01*
X436060Y303143D01*
X435177Y302777D01*
X434419Y302195D01*
X433837Y301437D01*
X433471Y300554D01*
X433347Y299606D01*
X433471Y298659D01*
X433837Y297776D01*
X434419Y297017D01*
X435177Y296436D01*
X436060Y296070D01*
X437008Y295945D01*
X437956Y296070D01*
X438838Y296436D01*
X439597Y297017D01*
X440179Y297776D01*
X440544Y298659D01*
X440613Y299182D01*
X441118D01*
X441192Y298618D01*
X441574Y297696D01*
X442181Y296905D01*
X442972Y296298D01*
X443893Y295916D01*
X444488Y295838D01*
Y299606D01*
Y303375D01*
D02*
G37*
G36*
X445276D02*
Y300000D01*
X448650D01*
X448572Y300595D01*
X448190Y301516D01*
X447583Y302308D01*
X446792Y302915D01*
X445871Y303296D01*
X445276Y303375D01*
D02*
G37*
G36*
X429134Y303268D02*
X428186Y303143D01*
X427303Y302777D01*
X426545Y302195D01*
X425963Y301437D01*
X425597Y300554D01*
X425473Y299606D01*
X425597Y298659D01*
X425963Y297776D01*
X426545Y297017D01*
X427303Y296436D01*
X428186Y296070D01*
X429134Y295945D01*
X430082Y296070D01*
X430965Y296436D01*
X431723Y297017D01*
X432305Y297776D01*
X432670Y298659D01*
X432795Y299606D01*
X432670Y300554D01*
X432305Y301437D01*
X431723Y302195D01*
X430965Y302777D01*
X430082Y303143D01*
X429134Y303268D01*
D02*
G37*
G36*
X421260D02*
X420312Y303143D01*
X419429Y302777D01*
X418671Y302195D01*
X418089Y301437D01*
X417723Y300554D01*
X417599Y299606D01*
X417723Y298659D01*
X418089Y297776D01*
X418671Y297017D01*
X419429Y296436D01*
X420312Y296070D01*
X421260Y295945D01*
X422207Y296070D01*
X423091Y296436D01*
X423849Y297017D01*
X424431Y297776D01*
X424796Y298659D01*
X424921Y299606D01*
X424796Y300554D01*
X424431Y301437D01*
X423849Y302195D01*
X423091Y302777D01*
X422207Y303143D01*
X421260Y303268D01*
D02*
G37*
G36*
X413386D02*
X412438Y303143D01*
X411555Y302777D01*
X410797Y302195D01*
X410215Y301437D01*
X409849Y300554D01*
X409725Y299606D01*
X409849Y298659D01*
X410215Y297776D01*
X410797Y297017D01*
X411555Y296436D01*
X412438Y296070D01*
X413386Y295945D01*
X414333Y296070D01*
X415216Y296436D01*
X415975Y297017D01*
X416557Y297776D01*
X416922Y298659D01*
X417047Y299606D01*
X416922Y300554D01*
X416557Y301437D01*
X415975Y302195D01*
X415216Y302777D01*
X414333Y303143D01*
X413386Y303268D01*
D02*
G37*
G36*
X405512D02*
X404564Y303143D01*
X403681Y302777D01*
X402923Y302195D01*
X402341Y301437D01*
X401975Y300554D01*
X401851Y299606D01*
X401975Y298659D01*
X402341Y297776D01*
X402923Y297017D01*
X403681Y296436D01*
X404564Y296070D01*
X405512Y295945D01*
X406459Y296070D01*
X407342Y296436D01*
X408101Y297017D01*
X408682Y297776D01*
X409048Y298659D01*
X409173Y299606D01*
X409048Y300554D01*
X408682Y301437D01*
X408101Y302195D01*
X407342Y302777D01*
X406459Y303143D01*
X405512Y303268D01*
D02*
G37*
G36*
X397638D02*
X396690Y303143D01*
X395807Y302777D01*
X395049Y302195D01*
X394467Y301437D01*
X394101Y300554D01*
X393977Y299606D01*
X394101Y298659D01*
X394467Y297776D01*
X395049Y297017D01*
X395807Y296436D01*
X396690Y296070D01*
X397638Y295945D01*
X398585Y296070D01*
X399468Y296436D01*
X400227Y297017D01*
X400808Y297776D01*
X401174Y298659D01*
X401299Y299606D01*
X401174Y300554D01*
X400808Y301437D01*
X400227Y302195D01*
X399468Y302777D01*
X398585Y303143D01*
X397638Y303268D01*
D02*
G37*
G36*
X389764D02*
X388816Y303143D01*
X387933Y302777D01*
X387175Y302195D01*
X386593Y301437D01*
X386227Y300554D01*
X386103Y299606D01*
X386227Y298659D01*
X386593Y297776D01*
X387175Y297017D01*
X387933Y296436D01*
X388816Y296070D01*
X389764Y295945D01*
X390711Y296070D01*
X391594Y296436D01*
X392353Y297017D01*
X392934Y297776D01*
X393300Y298659D01*
X393425Y299606D01*
X393300Y300554D01*
X392934Y301437D01*
X392353Y302195D01*
X391594Y302777D01*
X390711Y303143D01*
X389764Y303268D01*
D02*
G37*
G36*
X381890D02*
X380942Y303143D01*
X380059Y302777D01*
X379301Y302195D01*
X378719Y301437D01*
X378353Y300554D01*
X378228Y299606D01*
X378353Y298659D01*
X378719Y297776D01*
X379301Y297017D01*
X380059Y296436D01*
X380942Y296070D01*
X381890Y295945D01*
X382837Y296070D01*
X383720Y296436D01*
X384479Y297017D01*
X385061Y297776D01*
X385426Y298659D01*
X385551Y299606D01*
X385426Y300554D01*
X385061Y301437D01*
X384479Y302195D01*
X383720Y302777D01*
X382837Y303143D01*
X381890Y303268D01*
D02*
G37*
G36*
X374016D02*
X373068Y303143D01*
X372185Y302777D01*
X371427Y302195D01*
X370845Y301437D01*
X370479Y300554D01*
X370355Y299606D01*
X370479Y298659D01*
X370845Y297776D01*
X371427Y297017D01*
X372185Y296436D01*
X373068Y296070D01*
X374016Y295945D01*
X374963Y296070D01*
X375846Y296436D01*
X376605Y297017D01*
X377186Y297776D01*
X377552Y298659D01*
X377677Y299606D01*
X377552Y300554D01*
X377186Y301437D01*
X376605Y302195D01*
X375846Y302777D01*
X374963Y303143D01*
X374016Y303268D01*
D02*
G37*
G36*
X448650Y299213D02*
X445276D01*
Y295838D01*
X445871Y295916D01*
X446792Y296298D01*
X447583Y296905D01*
X448190Y297696D01*
X448572Y298618D01*
X448650Y299213D01*
D02*
G37*
G36*
X248228Y332063D02*
X247522Y331923D01*
X246923Y331522D01*
X246522Y330923D01*
X246382Y330217D01*
X246522Y329510D01*
X246923Y328911D01*
X247522Y328511D01*
X247675Y328480D01*
Y283465D01*
X247762Y283027D01*
X248010Y282656D01*
X256839Y273827D01*
X256556Y273403D01*
X256310Y273504D01*
X255118Y273661D01*
X253926Y273504D01*
X252815Y273044D01*
X251861Y272312D01*
X251129Y271358D01*
X250669Y270247D01*
X250512Y269055D01*
X250669Y267863D01*
X251129Y266752D01*
X251861Y265798D01*
X252815Y265066D01*
X253926Y264606D01*
X255118Y264449D01*
X256310Y264606D01*
X257421Y265066D01*
X258375Y265798D01*
X259107Y266752D01*
X259567Y267863D01*
X259724Y269055D01*
X259567Y270247D01*
X259466Y270493D01*
X259890Y270776D01*
X265195Y265471D01*
Y230547D01*
X265033Y230439D01*
X264633Y229840D01*
X264492Y229134D01*
X264633Y228427D01*
X265033Y227828D01*
X265632Y227428D01*
X266339Y227287D01*
X267045Y227428D01*
X267644Y227828D01*
X268044Y228427D01*
X268185Y229134D01*
X268044Y229840D01*
X267644Y230439D01*
X267483Y230547D01*
Y265945D01*
X267395Y266383D01*
X267147Y266754D01*
X249963Y283938D01*
Y329253D01*
X249917Y329484D01*
X249934Y329510D01*
X250075Y330217D01*
X249934Y330923D01*
X249534Y331522D01*
X248935Y331923D01*
X248228Y332063D01*
D02*
G37*
G36*
X255512Y263769D02*
Y259449D01*
X259832D01*
X259721Y260288D01*
X259245Y261438D01*
X258488Y262425D01*
X257501Y263182D01*
X256351Y263658D01*
X255512Y263769D01*
D02*
G37*
G36*
X254724D02*
X253885Y263658D01*
X252735Y263182D01*
X251749Y262425D01*
X250991Y261438D01*
X250515Y260288D01*
X250405Y259449D01*
X254724D01*
Y263769D01*
D02*
G37*
G36*
X259832Y258661D02*
X255512D01*
Y254342D01*
X256351Y254452D01*
X257501Y254928D01*
X258488Y255686D01*
X259245Y256673D01*
X259721Y257822D01*
X259832Y258661D01*
D02*
G37*
G36*
X254724D02*
X250405D01*
X250515Y257822D01*
X250991Y256673D01*
X251749Y255686D01*
X252735Y254928D01*
X253885Y254452D01*
X254724Y254342D01*
Y258661D01*
D02*
G37*
G36*
X255118Y253661D02*
X253926Y253504D01*
X252815Y253044D01*
X251861Y252312D01*
X251129Y251358D01*
X250669Y250247D01*
X250512Y249055D01*
X250669Y247863D01*
X251129Y246752D01*
X251861Y245798D01*
X252815Y245066D01*
X253926Y244606D01*
X255118Y244449D01*
X256310Y244606D01*
X257421Y245066D01*
X258375Y245798D01*
X259107Y246752D01*
X259567Y247863D01*
X259724Y249055D01*
X259567Y250247D01*
X259107Y251358D01*
X258375Y252312D01*
X257421Y253044D01*
X256310Y253504D01*
X255118Y253661D01*
D02*
G37*
G36*
X233189Y245928D02*
X225315D01*
X224637Y245839D01*
X224005Y245577D01*
X223462Y245160D01*
X223045Y244618D01*
X222783Y243985D01*
X222694Y243307D01*
Y239370D01*
X222783Y238692D01*
X223045Y238060D01*
X223462Y237517D01*
X224005Y237100D01*
X224637Y236839D01*
X225315Y236749D01*
X233189D01*
X233867Y236839D01*
X234499Y237100D01*
X235042Y237517D01*
X235459Y238060D01*
X235720Y238692D01*
X235810Y239370D01*
Y243307D01*
X235720Y243985D01*
X235459Y244618D01*
X235042Y245160D01*
X234499Y245577D01*
X233867Y245839D01*
X233189Y245928D01*
D02*
G37*
G36*
X213189D02*
X205315D01*
X204637Y245839D01*
X204005Y245577D01*
X203462Y245160D01*
X203045Y244618D01*
X202783Y243985D01*
X202694Y243307D01*
Y239370D01*
X202783Y238692D01*
X203045Y238060D01*
X203462Y237517D01*
X204005Y237100D01*
X204637Y236839D01*
X205315Y236749D01*
X213189D01*
X213867Y236839D01*
X214499Y237100D01*
X215042Y237517D01*
X215459Y238060D01*
X215721Y238692D01*
X215810Y239370D01*
Y243307D01*
X215721Y243985D01*
X215459Y244618D01*
X215042Y245160D01*
X214499Y245577D01*
X213867Y245839D01*
X213189Y245928D01*
D02*
G37*
G36*
X255118Y243661D02*
X253926Y243505D01*
X252815Y243044D01*
X251861Y242312D01*
X251129Y241358D01*
X250669Y240247D01*
X250512Y239055D01*
X250669Y237863D01*
X251129Y236752D01*
X251861Y235798D01*
X252815Y235066D01*
X253926Y234606D01*
X255118Y234449D01*
X256310Y234606D01*
X257421Y235066D01*
X258375Y235798D01*
X259107Y236752D01*
X259567Y237863D01*
X259724Y239055D01*
X259567Y240247D01*
X259107Y241358D01*
X258375Y242312D01*
X257421Y243044D01*
X256310Y243505D01*
X255118Y243661D01*
D02*
G37*
G36*
Y233662D02*
X253926Y233505D01*
X252815Y233044D01*
X251861Y232312D01*
X251129Y231358D01*
X250669Y230247D01*
X250512Y229055D01*
X250669Y227863D01*
X251129Y226752D01*
X251861Y225798D01*
X252815Y225066D01*
X253926Y224606D01*
X255118Y224449D01*
X256310Y224606D01*
X257421Y225066D01*
X258375Y225798D01*
X259107Y226752D01*
X259567Y227863D01*
X259724Y229055D01*
X259567Y230247D01*
X259107Y231358D01*
X258375Y232312D01*
X257421Y233044D01*
X256310Y233505D01*
X255118Y233662D01*
D02*
G37*
G36*
X444882Y216668D02*
X443934Y216543D01*
X443051Y216177D01*
X442293Y215595D01*
X441711Y214837D01*
X441345Y213954D01*
X441221Y213006D01*
X441345Y212059D01*
X441711Y211176D01*
X442293Y210417D01*
X443051Y209836D01*
X443934Y209470D01*
X444882Y209345D01*
X445829Y209470D01*
X446712Y209836D01*
X447471Y210417D01*
X448053Y211176D01*
X448418Y212059D01*
X448543Y213006D01*
X448418Y213954D01*
X448053Y214837D01*
X447471Y215595D01*
X446712Y216177D01*
X445829Y216543D01*
X444882Y216668D01*
D02*
G37*
G36*
X437008D02*
X436060Y216543D01*
X435177Y216177D01*
X434419Y215595D01*
X433837Y214837D01*
X433471Y213954D01*
X433347Y213006D01*
X433471Y212059D01*
X433837Y211176D01*
X434419Y210417D01*
X435177Y209836D01*
X436060Y209470D01*
X437008Y209345D01*
X437956Y209470D01*
X438838Y209836D01*
X439597Y210417D01*
X440179Y211176D01*
X440544Y212059D01*
X440669Y213006D01*
X440544Y213954D01*
X440179Y214837D01*
X439597Y215595D01*
X438838Y216177D01*
X437956Y216543D01*
X437008Y216668D01*
D02*
G37*
G36*
X429134D02*
X428186Y216543D01*
X427303Y216177D01*
X426545Y215595D01*
X425963Y214837D01*
X425597Y213954D01*
X425473Y213006D01*
X425597Y212059D01*
X425963Y211176D01*
X426545Y210417D01*
X427303Y209836D01*
X428186Y209470D01*
X429134Y209345D01*
X430082Y209470D01*
X430965Y209836D01*
X431723Y210417D01*
X432305Y211176D01*
X432670Y212059D01*
X432795Y213006D01*
X432670Y213954D01*
X432305Y214837D01*
X431723Y215595D01*
X430965Y216177D01*
X430082Y216543D01*
X429134Y216668D01*
D02*
G37*
G36*
X421260D02*
X420312Y216543D01*
X419429Y216177D01*
X418671Y215595D01*
X418089Y214837D01*
X417723Y213954D01*
X417599Y213006D01*
X417723Y212059D01*
X418089Y211176D01*
X418671Y210417D01*
X419429Y209836D01*
X420312Y209470D01*
X421260Y209345D01*
X422207Y209470D01*
X423091Y209836D01*
X423849Y210417D01*
X424431Y211176D01*
X424796Y212059D01*
X424921Y213006D01*
X424796Y213954D01*
X424431Y214837D01*
X423849Y215595D01*
X423091Y216177D01*
X422207Y216543D01*
X421260Y216668D01*
D02*
G37*
G36*
X413386D02*
X412438Y216543D01*
X411555Y216177D01*
X410797Y215595D01*
X410215Y214837D01*
X409849Y213954D01*
X409725Y213006D01*
X409849Y212059D01*
X410215Y211176D01*
X410797Y210417D01*
X411555Y209836D01*
X412438Y209470D01*
X413386Y209345D01*
X414333Y209470D01*
X415216Y209836D01*
X415975Y210417D01*
X416557Y211176D01*
X416922Y212059D01*
X417047Y213006D01*
X416922Y213954D01*
X416557Y214837D01*
X415975Y215595D01*
X415216Y216177D01*
X414333Y216543D01*
X413386Y216668D01*
D02*
G37*
G36*
X405512D02*
X404564Y216543D01*
X403681Y216177D01*
X402923Y215595D01*
X402341Y214837D01*
X401975Y213954D01*
X401851Y213006D01*
X401975Y212059D01*
X402341Y211176D01*
X402923Y210417D01*
X403681Y209836D01*
X404564Y209470D01*
X405512Y209345D01*
X406459Y209470D01*
X407342Y209836D01*
X408101Y210417D01*
X408682Y211176D01*
X409048Y212059D01*
X409173Y213006D01*
X409048Y213954D01*
X408682Y214837D01*
X408101Y215595D01*
X407342Y216177D01*
X406459Y216543D01*
X405512Y216668D01*
D02*
G37*
G36*
X397638D02*
X396690Y216543D01*
X395807Y216177D01*
X395049Y215595D01*
X394467Y214837D01*
X394101Y213954D01*
X393977Y213006D01*
X394101Y212059D01*
X394467Y211176D01*
X395049Y210417D01*
X395807Y209836D01*
X396690Y209470D01*
X397638Y209345D01*
X398585Y209470D01*
X399468Y209836D01*
X400227Y210417D01*
X400808Y211176D01*
X401174Y212059D01*
X401299Y213006D01*
X401174Y213954D01*
X400808Y214837D01*
X400227Y215595D01*
X399468Y216177D01*
X398585Y216543D01*
X397638Y216668D01*
D02*
G37*
G36*
X389764D02*
X388816Y216543D01*
X387933Y216177D01*
X387175Y215595D01*
X386593Y214837D01*
X386227Y213954D01*
X386103Y213006D01*
X386227Y212059D01*
X386593Y211176D01*
X387175Y210417D01*
X387933Y209836D01*
X388816Y209470D01*
X389764Y209345D01*
X390711Y209470D01*
X391594Y209836D01*
X392353Y210417D01*
X392934Y211176D01*
X393300Y212059D01*
X393425Y213006D01*
X393300Y213954D01*
X392934Y214837D01*
X392353Y215595D01*
X391594Y216177D01*
X390711Y216543D01*
X389764Y216668D01*
D02*
G37*
G36*
X381890D02*
X380942Y216543D01*
X380059Y216177D01*
X379301Y215595D01*
X378719Y214837D01*
X378353Y213954D01*
X378228Y213006D01*
X378353Y212059D01*
X378719Y211176D01*
X379301Y210417D01*
X380059Y209836D01*
X380942Y209470D01*
X381890Y209345D01*
X382837Y209470D01*
X383720Y209836D01*
X384479Y210417D01*
X385061Y211176D01*
X385426Y212059D01*
X385551Y213006D01*
X385426Y213954D01*
X385061Y214837D01*
X384479Y215595D01*
X383720Y216177D01*
X382837Y216543D01*
X381890Y216668D01*
D02*
G37*
G36*
X374016D02*
X373068Y216543D01*
X372185Y216177D01*
X371427Y215595D01*
X370845Y214837D01*
X370479Y213954D01*
X370355Y213006D01*
X370479Y212059D01*
X370845Y211176D01*
X371427Y210417D01*
X372185Y209836D01*
X373068Y209470D01*
X374016Y209345D01*
X374963Y209470D01*
X375846Y209836D01*
X376605Y210417D01*
X377186Y211176D01*
X377552Y212059D01*
X377677Y213006D01*
X377552Y213954D01*
X377186Y214837D01*
X376605Y215595D01*
X375846Y216177D01*
X374963Y216543D01*
X374016Y216668D01*
D02*
G37*
G36*
X223189Y215928D02*
X215315D01*
X214637Y215839D01*
X214004Y215577D01*
X213462Y215160D01*
X213045Y214617D01*
X212783Y213985D01*
X212694Y213307D01*
Y209370D01*
X212783Y208692D01*
X213045Y208060D01*
X213462Y207517D01*
X214004Y207100D01*
X214637Y206838D01*
X215315Y206749D01*
X223189D01*
X223867Y206838D01*
X224499Y207100D01*
X225042Y207517D01*
X225459Y208060D01*
X225721Y208692D01*
X225810Y209370D01*
Y213307D01*
X225721Y213985D01*
X225459Y214617D01*
X225042Y215160D01*
X224499Y215577D01*
X223867Y215839D01*
X223189Y215928D01*
D02*
G37*
%LPD*%
D10*
X418500Y385000D02*
Y393705D01*
X413779Y398425D02*
X418500Y393705D01*
X373425Y398425D02*
X413779D01*
X276772Y413772D02*
X294087D01*
X294094Y413779D01*
X298228Y421260D02*
X311614D01*
X294094Y417126D02*
X298228Y421260D01*
X294094Y413779D02*
Y417126D01*
X276772Y402953D02*
X283858Y395866D01*
X276772Y402953D02*
Y413772D01*
X328346Y410433D02*
X347529D01*
X328346D02*
X328543Y410630D01*
X328150Y410236D02*
X328346Y410433D01*
X283858Y395866D02*
X393701D01*
X248819Y283465D02*
Y329253D01*
X248228Y329844D02*
X248819Y329253D01*
X248228Y329844D02*
Y330217D01*
X248819Y283465D02*
X266339Y265945D01*
Y229134D02*
Y265945D01*
X350500Y312500D02*
X381161D01*
X389697Y321035D01*
X345000Y362205D02*
Y377000D01*
Y355500D02*
Y362205D01*
X303543Y371063D02*
Y384055D01*
Y371063D02*
X312402Y362205D01*
X345000D01*
X310039Y376181D02*
X327953D01*
X333661Y381890D01*
X344094D01*
X363189Y329331D02*
Y366500D01*
Y325197D02*
Y329331D01*
X327165Y303937D02*
X352559Y329331D01*
X363189D01*
Y366500D02*
X389000D01*
X352000D02*
X363189D01*
X359537Y398425D02*
X373425D01*
Y406102D01*
X347529Y410433D02*
X359537Y398425D01*
X346500Y308500D02*
X350500Y312500D01*
X389000Y366500D02*
X407500Y385000D01*
X418500D01*
D53*
X255118Y269055D02*
D03*
Y229055D02*
D03*
Y239055D02*
D03*
Y259055D02*
D03*
Y249055D02*
D03*
X392000Y405500D02*
D03*
X402000D02*
D03*
X382000D02*
D03*
Y415500D02*
D03*
X392000D02*
D03*
X402000D02*
D03*
X282874Y374410D02*
D03*
X292874D02*
D03*
X282874Y364409D02*
D03*
X292874Y384409D02*
D03*
X282874D02*
D03*
D54*
X437008Y213006D02*
D03*
X429134D02*
D03*
X444882D02*
D03*
X413386D02*
D03*
X421260D02*
D03*
X437008Y299606D02*
D03*
X429134D02*
D03*
X444882D02*
D03*
X413386D02*
D03*
X421260D02*
D03*
X397638Y213006D02*
D03*
X389764D02*
D03*
X405512D02*
D03*
X374016D02*
D03*
X381890D02*
D03*
X397638Y299606D02*
D03*
X389764D02*
D03*
X405512D02*
D03*
X374016D02*
D03*
X381890D02*
D03*
X323000Y352000D02*
D03*
Y371213D02*
D03*
D55*
X292874Y364409D02*
D03*
D56*
X219252Y443622D02*
D03*
X209252Y413622D02*
D03*
X229252D02*
D03*
Y241339D02*
D03*
X209252D02*
D03*
X219252Y211339D02*
D03*
D57*
X448819Y440945D02*
D03*
X440945Y425197D02*
D03*
X448819Y409449D02*
D03*
X440945Y393701D02*
D03*
X448819Y377953D02*
D03*
Y346457D02*
D03*
X440945Y330709D02*
D03*
X448819Y314961D02*
D03*
Y283465D02*
D03*
X440945Y267717D02*
D03*
X448819Y251969D02*
D03*
X440945Y236220D02*
D03*
X448819Y220472D02*
D03*
X440945Y204724D02*
D03*
X433071Y440945D02*
D03*
X425197Y425197D02*
D03*
X433071Y409449D02*
D03*
X425197Y393701D02*
D03*
X433071Y377953D02*
D03*
X425197Y330709D02*
D03*
X433071Y314961D02*
D03*
Y283465D02*
D03*
X425197Y267717D02*
D03*
X433071Y251969D02*
D03*
X425197Y236220D02*
D03*
X433071Y220472D02*
D03*
X425197Y204724D02*
D03*
X417323Y440945D02*
D03*
X409449Y425197D02*
D03*
X417323Y409449D02*
D03*
X409449Y393701D02*
D03*
X417323Y346457D02*
D03*
X409449Y330709D02*
D03*
X417323Y314961D02*
D03*
Y283465D02*
D03*
X409449Y267717D02*
D03*
X417323Y251969D02*
D03*
X409449Y236220D02*
D03*
X417323Y220472D02*
D03*
X409449Y204724D02*
D03*
X401575Y440945D02*
D03*
X393701Y425197D02*
D03*
Y362205D02*
D03*
X401575Y346457D02*
D03*
X393701Y330709D02*
D03*
X401575Y314961D02*
D03*
Y283465D02*
D03*
X393701Y267717D02*
D03*
X401575Y251969D02*
D03*
X393701Y236220D02*
D03*
X401575Y220472D02*
D03*
X393701Y204724D02*
D03*
X385827Y440945D02*
D03*
X377953Y425197D02*
D03*
X385827Y377953D02*
D03*
X377953Y362205D02*
D03*
Y330709D02*
D03*
X385827Y283465D02*
D03*
X377953Y267717D02*
D03*
X385827Y251969D02*
D03*
X377953Y236220D02*
D03*
X385827Y220472D02*
D03*
X377953Y204724D02*
D03*
X370079Y440945D02*
D03*
X362205Y425197D02*
D03*
X370079Y377953D02*
D03*
Y283465D02*
D03*
X362205Y267717D02*
D03*
X370079Y251969D02*
D03*
X362205Y236220D02*
D03*
X370079Y220472D02*
D03*
X362205Y204724D02*
D03*
X354331Y440945D02*
D03*
X346457Y425197D02*
D03*
X354331Y409449D02*
D03*
X346457Y299213D02*
D03*
X354331Y283465D02*
D03*
X346457Y267717D02*
D03*
X354331Y251969D02*
D03*
X346457Y236220D02*
D03*
X354331Y220472D02*
D03*
X346457Y204724D02*
D03*
X338583Y440945D02*
D03*
X330709Y425197D02*
D03*
Y330709D02*
D03*
Y299213D02*
D03*
X338583Y283465D02*
D03*
X330709Y267717D02*
D03*
X338583Y251969D02*
D03*
X330709Y236220D02*
D03*
X338583Y220472D02*
D03*
X330709Y204724D02*
D03*
X322835Y440945D02*
D03*
X314961Y425197D02*
D03*
X322835Y346457D02*
D03*
X314961Y330709D02*
D03*
X322835Y314961D02*
D03*
X314961Y299213D02*
D03*
X322835Y283465D02*
D03*
X314961Y267717D02*
D03*
X322835Y251969D02*
D03*
X314961Y236220D02*
D03*
X322835Y220472D02*
D03*
X314961Y204724D02*
D03*
X307087Y440945D02*
D03*
X299213Y425197D02*
D03*
X307087Y377953D02*
D03*
Y346457D02*
D03*
X299213Y330709D02*
D03*
X307087Y314961D02*
D03*
X299213Y299213D02*
D03*
X307087Y283465D02*
D03*
X299213Y267717D02*
D03*
X307087Y251969D02*
D03*
X299213Y236220D02*
D03*
X307087Y220472D02*
D03*
X299213Y204724D02*
D03*
X291338Y440945D02*
D03*
X283465Y425197D02*
D03*
X291338Y346457D02*
D03*
Y314961D02*
D03*
X283465Y299213D02*
D03*
X291338Y283465D02*
D03*
X283465Y267717D02*
D03*
X291338Y251969D02*
D03*
X283465Y236220D02*
D03*
X291338Y220472D02*
D03*
X283465Y204724D02*
D03*
X275590Y440945D02*
D03*
X267717Y425197D02*
D03*
Y393701D02*
D03*
X275590Y377953D02*
D03*
X267717Y362205D02*
D03*
X275590Y346457D02*
D03*
X267717Y330709D02*
D03*
X275590Y314961D02*
D03*
X267717Y299213D02*
D03*
X275590Y283465D02*
D03*
Y251969D02*
D03*
Y220472D02*
D03*
X267717Y204724D02*
D03*
X259842Y440945D02*
D03*
X251969Y425197D02*
D03*
X259842Y409449D02*
D03*
X251969Y393701D02*
D03*
X259842Y377953D02*
D03*
X251969Y362205D02*
D03*
X259842Y346457D02*
D03*
X251969Y330709D02*
D03*
Y299213D02*
D03*
X259842Y220472D02*
D03*
X251969Y204724D02*
D03*
X244094Y440945D02*
D03*
X236220Y425197D02*
D03*
X244094Y409449D02*
D03*
X236220Y393701D02*
D03*
X244094Y377953D02*
D03*
X236220Y362205D02*
D03*
X244094Y346457D02*
D03*
X236220Y330709D02*
D03*
X244094Y314961D02*
D03*
X236220Y299213D02*
D03*
X244094Y283465D02*
D03*
X236220Y267717D02*
D03*
X244094Y251969D02*
D03*
X236220Y236220D02*
D03*
X220472Y425197D02*
D03*
Y393701D02*
D03*
X228346Y377953D02*
D03*
X220472Y362205D02*
D03*
X228346Y346457D02*
D03*
X220472Y330709D02*
D03*
X228346Y314961D02*
D03*
X220472Y299213D02*
D03*
X228346Y283465D02*
D03*
X220472Y267717D02*
D03*
X228346Y251969D02*
D03*
X220472Y236220D02*
D03*
X228346Y220472D02*
D03*
X220472Y204724D02*
D03*
X204724Y425197D02*
D03*
Y393701D02*
D03*
X212598Y377953D02*
D03*
X204724Y362205D02*
D03*
X212598Y346457D02*
D03*
X204724Y330709D02*
D03*
X212598Y314961D02*
D03*
X204724Y299213D02*
D03*
X212598Y283465D02*
D03*
X204724Y267717D02*
D03*
X212598Y251969D02*
D03*
X204724Y204724D02*
D03*
X196850Y440945D02*
D03*
X188976Y425197D02*
D03*
X196850Y409449D02*
D03*
X188976Y393701D02*
D03*
X196850Y377953D02*
D03*
X188976Y362205D02*
D03*
X196850Y346457D02*
D03*
X188976Y330709D02*
D03*
X196850Y314961D02*
D03*
X188976Y299213D02*
D03*
X196850Y283465D02*
D03*
X188976Y267717D02*
D03*
X196850Y251969D02*
D03*
X188976Y236220D02*
D03*
X196850Y220472D02*
D03*
X188976Y204724D02*
D03*
X323031Y325000D02*
D03*
X450787Y299213D02*
D03*
X435433Y345669D02*
D03*
X434842Y372244D02*
D03*
X315748Y413976D02*
D03*
X200394Y413386D02*
D03*
X237795Y412992D02*
D03*
X228346Y443898D02*
D03*
X262402Y259055D02*
D03*
X420276Y364567D02*
D03*
X409449Y382283D02*
D03*
X341929Y375197D02*
D03*
X339370Y379134D02*
D03*
X328150Y410236D02*
D03*
X311614Y421260D02*
D03*
X393701Y395866D02*
D03*
X294094Y413779D02*
D03*
X276772Y413772D02*
D03*
X248228Y330217D02*
D03*
X266339Y229134D02*
D03*
X363189Y325197D02*
D03*
X303543Y384055D02*
D03*
X310039Y376181D02*
D03*
X344094Y381890D02*
D03*
X327165Y303937D02*
D03*
X373425Y406102D02*
D03*
X389697Y321035D02*
D03*
X346500Y308500D02*
D03*
X345000Y355500D02*
D03*
Y377000D02*
D03*
X352000Y366500D02*
D03*
X418500Y385000D02*
D03*
M02*
