G04*
G04 #@! TF.GenerationSoftware,Altium Limited,Altium Designer,18.1.9 (240)*
G04*
G04 Layer_Color=65535*
%FSLAX25Y25*%
%MOIN*%
G70*
G01*
G75*
%ADD10C,0.00984*%
%ADD11C,0.00600*%
%ADD12C,0.01575*%
%ADD13C,0.00602*%
%ADD14C,0.00787*%
%ADD15C,0.00500*%
%ADD16C,0.00630*%
%ADD17C,0.00669*%
D10*
X249291Y339764D02*
G03*
X249291Y339764I-492J0D01*
G01*
X357189Y406571D02*
G03*
X357189Y406571I-492J0D01*
G01*
X369760Y328339D02*
G03*
X369760Y328339I-492J0D01*
G01*
D11*
X307700Y408300D02*
G03*
X305300Y408300I-1200J0D01*
G01*
X304900Y419700D02*
X308100D01*
X304900Y408300D02*
X305300D01*
X307700D01*
X308100D01*
D12*
X351961Y382638D02*
G03*
X351961Y382638I-787J0D01*
G01*
D13*
X235906Y204213D02*
Y215079D01*
Y204213D02*
X242008D01*
Y215079D01*
X235906D02*
X242008D01*
X326417Y407657D02*
Y412776D01*
X317717Y407657D02*
X326417D01*
X317717D02*
Y412776D01*
X326417D01*
X415350Y381102D02*
X421650D01*
Y368898D02*
Y381102D01*
X415350Y368898D02*
X421650D01*
X415350D02*
Y381102D01*
X339126Y368165D02*
Y373835D01*
Y368165D02*
X350780D01*
X339126Y373835D02*
X350780D01*
Y368165D02*
Y373835D01*
D14*
X258760Y346752D02*
X261811D01*
Y343209D02*
Y346752D01*
X250394D02*
X253445D01*
X250394Y343209D02*
Y346752D01*
X366657Y413559D02*
X369709D01*
Y410016D02*
Y413559D01*
X358291D02*
X361343D01*
X358291Y410016D02*
Y413559D01*
X376256Y315327D02*
Y318378D01*
X372713Y315327D02*
X376256D01*
Y323693D02*
Y326744D01*
X372713D02*
X376256D01*
X331539Y348303D02*
Y348697D01*
X336461Y348303D02*
Y348697D01*
X336461Y375303D02*
Y375697D01*
X331539Y375303D02*
Y375697D01*
X431961Y349303D02*
Y349697D01*
X427039Y349303D02*
Y349697D01*
X427039Y366846D02*
Y367240D01*
X431961Y366846D02*
Y367240D01*
D15*
X288772Y413563D02*
Y414744D01*
X285228Y413563D02*
Y414744D01*
X399244Y384850D02*
Y386732D01*
X397362D02*
X399244D01*
X397362Y346969D02*
X399244D01*
Y348850D01*
X359480Y386732D02*
X361362D01*
X359480Y384850D02*
Y386732D01*
Y346969D02*
Y348850D01*
Y346969D02*
X361362D01*
D16*
X306693Y327362D02*
Y331298D01*
X308661D01*
X309317Y330642D01*
Y329330D01*
X308661Y328674D01*
X306693D01*
X308005D02*
X309317Y327362D01*
X313252Y330642D02*
X312597Y331298D01*
X311285D01*
X310629Y330642D01*
Y329986D01*
X311285Y329330D01*
X312597D01*
X313252Y328674D01*
Y328018D01*
X312597Y327362D01*
X311285D01*
X310629Y328018D01*
X314564Y331298D02*
X317188D01*
X315876D01*
Y327362D01*
X264567Y346652D02*
X267191D01*
X265879D01*
Y342717D01*
X268503Y345996D02*
X269159Y346652D01*
X270470D01*
X271127Y345996D01*
Y345340D01*
X270470Y344684D01*
X269815D01*
X270470D01*
X271127Y344028D01*
Y343373D01*
X270470Y342717D01*
X269159D01*
X268503Y343373D01*
X294094Y426902D02*
X294750Y427558D01*
X296062D01*
X296718Y426902D01*
Y426246D01*
X296062Y425590D01*
X295406D01*
X296062D01*
X296718Y424934D01*
Y424278D01*
X296062Y423622D01*
X294750D01*
X294094Y424278D01*
X298030Y423622D02*
Y424278D01*
X298686D01*
Y423622D01*
X298030D01*
X301310Y427558D02*
X303934D01*
Y426902D01*
X301310Y424278D01*
Y423622D01*
X305246Y425590D02*
X307870D01*
X311805Y427558D02*
X309181D01*
Y425590D01*
X310493Y426246D01*
X311149D01*
X311805Y425590D01*
Y424278D01*
X311149Y423622D01*
X309837D01*
X309181Y424278D01*
X313117Y427558D02*
Y424934D01*
X314429Y423622D01*
X315741Y424934D01*
Y427558D01*
X190945Y308071D02*
Y309383D01*
Y308727D01*
X187009D01*
X187665Y308071D01*
Y311351D02*
X187009Y312007D01*
Y313318D01*
X187665Y313974D01*
X188321D01*
X188977Y313318D01*
X189633Y313974D01*
X190289D01*
X190945Y313318D01*
Y312007D01*
X190289Y311351D01*
X189633D01*
X188977Y312007D01*
X188321Y311351D01*
X187665D01*
X188977Y312007D02*
Y313318D01*
X187009Y317910D02*
X187665Y316598D01*
X188977Y315286D01*
X190289D01*
X190945Y315942D01*
Y317254D01*
X190289Y317910D01*
X189633D01*
X188977Y317254D01*
Y315286D01*
X187009Y321846D02*
Y319222D01*
X188977D01*
X188321Y320534D01*
Y321190D01*
X188977Y321846D01*
X190289D01*
X190945Y321190D01*
Y319878D01*
X190289Y319222D01*
X187665Y323158D02*
X187009Y323814D01*
Y325126D01*
X187665Y325782D01*
X190289D01*
X190945Y325126D01*
Y323814D01*
X190289Y323158D01*
X187665D01*
X187009Y331029D02*
X190945D01*
Y332997D01*
X190289Y333653D01*
X189633D01*
X188977D01*
X188321Y332997D01*
Y331029D01*
Y335621D02*
Y336933D01*
X188977Y337589D01*
X190945D01*
Y335621D01*
X190289Y334965D01*
X189633Y335621D01*
Y337589D01*
X187665Y339557D02*
X188321D01*
Y338901D01*
Y340213D01*
Y339557D01*
X190289D01*
X190945Y340213D01*
X187665Y342837D02*
X188321D01*
Y342181D01*
Y343493D01*
Y342837D01*
X190289D01*
X190945Y343493D01*
Y347428D02*
Y346116D01*
X190289Y345460D01*
X188977D01*
X188321Y346116D01*
Y347428D01*
X188977Y348084D01*
X189633D01*
Y345460D01*
X188321Y349396D02*
X190945D01*
X189633D01*
X188977Y350052D01*
X188321Y350708D01*
Y351364D01*
Y353332D02*
X190289D01*
X190945Y353988D01*
Y355956D01*
X191601D01*
X192257Y355300D01*
Y354644D01*
X190945Y355956D02*
X188321D01*
X384120Y428477D02*
X383464Y429133D01*
X382152D01*
X381496Y428477D01*
Y427821D01*
X382152Y427165D01*
X383464D01*
X384120Y426509D01*
Y425853D01*
X383464Y425197D01*
X382152D01*
X381496Y425853D01*
X387400Y425197D02*
X386088D01*
X385432Y425853D01*
Y427165D01*
X386088Y427821D01*
X387400D01*
X388056Y427165D01*
Y426509D01*
X385432D01*
X389368Y425197D02*
Y427821D01*
X391335D01*
X391991Y427165D01*
Y425197D01*
X393303D02*
X395271D01*
X395927Y425853D01*
X395271Y426509D01*
X393959D01*
X393303Y427165D01*
X393959Y427821D01*
X395927D01*
X397895Y425197D02*
X399207D01*
X399863Y425853D01*
Y427165D01*
X399207Y427821D01*
X397895D01*
X397239Y427165D01*
Y425853D01*
X397895Y425197D01*
X401175Y427821D02*
Y425197D01*
Y426509D01*
X401831Y427165D01*
X402487Y427821D01*
X403143D01*
X316929Y350984D02*
Y352296D01*
Y351640D01*
X312993D01*
X313649Y350984D01*
X316929Y354264D02*
X316273D01*
Y354920D01*
X316929D01*
Y354264D01*
X313649Y357544D02*
X312993Y358200D01*
Y359512D01*
X313649Y360168D01*
X314305D01*
X314961Y359512D01*
X315617Y360168D01*
X316273D01*
X316929Y359512D01*
Y358200D01*
X316273Y357544D01*
X315617D01*
X314961Y358200D01*
X314305Y357544D01*
X313649D01*
X314961Y358200D02*
Y359512D01*
X316929Y361480D02*
X312993D01*
X314305Y362791D01*
X312993Y364103D01*
X316929D01*
X312993Y365415D02*
X316929D01*
X314961D01*
Y368039D01*
X312993D01*
X316929D01*
X314305Y369351D02*
Y371975D01*
X316929Y369351D01*
Y371975D01*
X450327Y366339D02*
X450983Y365683D01*
Y364371D01*
X450327Y363715D01*
X449671D01*
X449015Y364371D01*
Y365027D01*
Y364371D01*
X448359Y363715D01*
X447703D01*
X447047Y364371D01*
Y365683D01*
X447703Y366339D01*
X447047Y359779D02*
Y362403D01*
X449671Y359779D01*
X450327D01*
X450983Y360435D01*
Y361747D01*
X450327Y362403D01*
X447047Y358467D02*
X450983D01*
X448359D02*
X449671Y356499D01*
X448359Y358467D02*
X447047Y356499D01*
X450983Y354531D02*
X447047D01*
X449015D01*
Y351907D01*
X450983D01*
X447047D01*
X449671Y350596D02*
Y347972D01*
X447047Y350596D01*
Y347972D01*
X348886Y238844D02*
X348230Y238188D01*
Y236876D01*
X348886Y236221D01*
X351509D01*
X352165Y236876D01*
Y238188D01*
X351509Y238844D01*
X352165Y240812D02*
Y242124D01*
X351509Y242780D01*
X350198D01*
X349541Y242124D01*
Y240812D01*
X350198Y240156D01*
X351509D01*
X352165Y240812D01*
Y244092D02*
X349541D01*
Y244748D01*
X350198Y245404D01*
X352165D01*
X350198D01*
X349541Y246060D01*
X350198Y246716D01*
X352165D01*
Y251963D02*
X349541D01*
Y252619D01*
X350198Y253275D01*
X352165D01*
X350198D01*
X349541Y253931D01*
X350198Y254587D01*
X352165D01*
Y256555D02*
Y257867D01*
X351509Y258523D01*
X350198D01*
X349541Y257867D01*
Y256555D01*
X350198Y255899D01*
X351509D01*
X352165Y256555D01*
X348230Y262459D02*
X352165D01*
Y260491D01*
X351509Y259835D01*
X350198D01*
X349541Y260491D01*
Y262459D01*
Y263771D02*
X351509D01*
X352165Y264427D01*
Y266394D01*
X349541D01*
X352165Y267706D02*
Y269018D01*
Y268362D01*
X348230D01*
Y267706D01*
X352165Y272954D02*
Y271642D01*
X351509Y270986D01*
X350198D01*
X349541Y271642D01*
Y272954D01*
X350198Y273610D01*
X350853D01*
Y270986D01*
X365551Y336024D02*
Y338647D01*
X366863Y339959D01*
X368175Y338647D01*
Y336024D01*
Y337991D01*
X365551D01*
X369487Y339959D02*
X372111D01*
X370799D01*
Y336024D01*
X373423D02*
Y338647D01*
X374079D01*
X374735Y337991D01*
Y336024D01*
Y337991D01*
X375391Y338647D01*
X376046Y337991D01*
Y336024D01*
X379326D02*
X378014D01*
X377358Y336680D01*
Y337991D01*
X378014Y338647D01*
X379326D01*
X379982Y337991D01*
Y337335D01*
X377358D01*
X382606Y334712D02*
X383262D01*
X383918Y335368D01*
Y338647D01*
X381950D01*
X381294Y337991D01*
Y336680D01*
X381950Y336024D01*
X383918D01*
X385886Y338647D02*
X387198D01*
X387854Y337991D01*
Y336024D01*
X385886D01*
X385230Y336680D01*
X385886Y337335D01*
X387854D01*
X389166Y339303D02*
X389822Y339959D01*
X391133D01*
X391789Y339303D01*
Y338647D01*
X391133Y337991D01*
X390477D01*
X391133D01*
X391789Y337335D01*
Y336680D01*
X391133Y336024D01*
X389822D01*
X389166Y336680D01*
X395725Y336024D02*
X393101D01*
X395725Y338647D01*
Y339303D01*
X395069Y339959D01*
X393757D01*
X393101Y339303D01*
X399005Y336024D02*
Y339959D01*
X397037Y337991D01*
X399661D01*
X400973Y334712D02*
Y338647D01*
X402941D01*
X403597Y337991D01*
Y336680D01*
X402941Y336024D01*
X400973D01*
X404909Y339959D02*
Y336024D01*
X406877D01*
X407532Y336680D01*
Y337335D01*
Y337991D01*
X406877Y338647D01*
X404909D01*
D17*
X196851Y423622D02*
Y426246D01*
Y427558D02*
Y430182D01*
Y431494D02*
Y434117D01*
X198819Y220669D02*
Y223293D01*
X197508Y221981D02*
X200131D01*
X198819Y224605D02*
Y227229D01*
X197508Y225917D02*
X200131D01*
X198819Y228541D02*
Y231165D01*
X197508Y229853D02*
X200131D01*
X318701Y402165D02*
Y406101D01*
X320669D01*
X321325Y405445D01*
Y404133D01*
X320669Y403477D01*
X318701D01*
X320013D02*
X321325Y402165D01*
X325260D02*
X322637D01*
X325260Y404789D01*
Y405445D01*
X324604Y406101D01*
X323292D01*
X322637Y405445D01*
X272048Y367978D02*
Y366666D01*
Y367322D01*
X275328D01*
X275984Y366666D01*
Y366010D01*
X275328Y365354D01*
X272048Y369290D02*
Y371914D01*
Y370602D01*
X275984D01*
Y373226D02*
X273360D01*
X272048Y374538D01*
X273360Y375850D01*
X275984D01*
X274016D01*
Y373226D01*
X272705Y379785D02*
X272048Y379129D01*
Y377818D01*
X272705Y377162D01*
X275328D01*
X275984Y377818D01*
Y379129D01*
X275328Y379785D01*
X274016D01*
Y378473D01*
X286482Y424933D02*
X285826Y425589D01*
X284514D01*
X283858Y424933D01*
Y422309D01*
X284514Y421654D01*
X285826D01*
X286482Y422309D01*
X287794D02*
X288450Y421654D01*
X289762D01*
X290418Y422309D01*
Y424933D01*
X289762Y425589D01*
X288450D01*
X287794Y424933D01*
Y424277D01*
X288450Y423621D01*
X290418D01*
X423228Y378542D02*
Y374606D01*
X425852D01*
X427164D02*
X428476D01*
X427820D01*
Y378542D01*
X427164Y377886D01*
X412138Y359514D02*
X411614Y360038D01*
X410564D01*
X410039Y359514D01*
Y357415D01*
X410564Y356890D01*
X411614D01*
X412138Y357415D01*
X414762Y356890D02*
Y360038D01*
X413188Y358464D01*
X415287D01*
X358071Y423424D02*
X360695D01*
X359383D01*
Y419488D01*
X364630D02*
X362007D01*
X364630Y422112D01*
Y422768D01*
X363974Y423424D01*
X362663D01*
X362007Y422768D01*
X408989Y387269D02*
X408464Y387794D01*
X407414D01*
X406890Y387269D01*
Y385170D01*
X407414Y384646D01*
X408464D01*
X408989Y385170D01*
X410038Y387269D02*
X410563Y387794D01*
X411613D01*
X412137Y387269D01*
Y386745D01*
X411613Y386220D01*
X412137Y385695D01*
Y385170D01*
X411613Y384646D01*
X410563D01*
X410038Y385170D01*
Y385695D01*
X410563Y386220D01*
X410038Y386745D01*
Y387269D01*
X410563Y386220D02*
X411613D01*
X382283Y326967D02*
X384907D01*
X383595D01*
Y323031D01*
X386219D02*
X387531D01*
X386875D01*
Y326967D01*
X386219Y326311D01*
X337992Y305315D02*
Y309251D01*
X339960D01*
X340616Y308595D01*
Y307283D01*
X339960Y306627D01*
X337992D01*
X339304D02*
X340616Y305315D01*
X341928D02*
X343240D01*
X342584D01*
Y309251D01*
X341928Y308595D01*
X333332Y340288D02*
X332677Y340944D01*
X331365D01*
X330709Y340288D01*
Y337664D01*
X331365Y337008D01*
X332677D01*
X333332Y337664D01*
X337268Y340944D02*
X334644D01*
Y338976D01*
X335956Y339632D01*
X336612D01*
X337268Y338976D01*
Y337664D01*
X336612Y337008D01*
X335300D01*
X334644Y337664D01*
X333332Y366272D02*
X332677Y366928D01*
X331365D01*
X330709Y366272D01*
Y363648D01*
X331365Y362992D01*
X332677D01*
X333332Y363648D01*
X334644Y366272D02*
X335300Y366928D01*
X336612D01*
X337268Y366272D01*
Y365616D01*
X336612Y364960D01*
X335956D01*
X336612D01*
X337268Y364304D01*
Y363648D01*
X336612Y362992D01*
X335300D01*
X334644Y363648D01*
X440616Y370799D02*
X439960Y371455D01*
X438648D01*
X437992Y370799D01*
Y368176D01*
X438648Y367520D01*
X439960D01*
X440616Y368176D01*
X441928Y371455D02*
X444552D01*
Y370799D01*
X441928Y368176D01*
Y367520D01*
X428805Y340681D02*
X428149Y341337D01*
X426837D01*
X426181Y340681D01*
Y338057D01*
X426837Y337402D01*
X428149D01*
X428805Y338057D01*
X432741Y341337D02*
X431429Y340681D01*
X430117Y339369D01*
Y338057D01*
X430773Y337402D01*
X432085D01*
X432741Y338057D01*
Y338714D01*
X432085Y339369D01*
X430117D01*
X345144Y365681D02*
X344488Y366337D01*
X343176D01*
X342520Y365681D01*
Y363057D01*
X343176Y362402D01*
X344488D01*
X345144Y363057D01*
X346455Y362402D02*
X347767D01*
X347111D01*
Y366337D01*
X346455Y365681D01*
M02*
