G04*
G04 #@! TF.GenerationSoftware,Altium Limited,Altium Designer,18.1.9 (240)*
G04*
G04 Layer_Color=8388736*
%FSLAX25Y25*%
%MOIN*%
G70*
G01*
G75*
%ADD18R,0.04343X0.03162*%
%ADD19R,0.02965X0.04540*%
%ADD20R,0.04737X0.04343*%
%ADD21R,0.02769X0.03162*%
%ADD22R,0.04540X0.02965*%
%ADD23R,0.05524X0.03950*%
%ADD24R,0.04737X0.05131*%
%ADD25R,0.05600X0.02800*%
%ADD26R,0.04343X0.04737*%
%ADD27R,0.07480X0.03347*%
%ADD28R,0.03347X0.07480*%
%ADD29R,0.04698X0.04265*%
%ADD30R,0.03950X0.03950*%
%ADD31R,0.06509X0.05328*%
%ADD32R,0.07887X0.04737*%
%ADD33C,0.08674*%
%ADD34C,0.06800*%
%ADD35R,0.08674X0.08674*%
G04:AMPARAMS|DCode=36|XSize=86.74mil|YSize=126.11mil|CornerRadius=23.68mil|HoleSize=0mil|Usage=FLASHONLY|Rotation=270.000|XOffset=0mil|YOffset=0mil|HoleType=Round|Shape=RoundedRectangle|*
%AMROUNDEDRECTD36*
21,1,0.08674,0.07874,0,0,270.0*
21,1,0.03937,0.12611,0,0,270.0*
1,1,0.04737,-0.03937,-0.01968*
1,1,0.04737,-0.03937,0.01968*
1,1,0.04737,0.03937,0.01968*
1,1,0.04737,0.03937,-0.01968*
%
%ADD36ROUNDEDRECTD36*%
D18*
X238976Y206693D02*
D03*
Y212598D02*
D03*
D19*
X256102Y348622D02*
D03*
X260157Y339764D02*
D03*
X252047D02*
D03*
X364000Y415429D02*
D03*
X368055Y406571D02*
D03*
X359945D02*
D03*
D20*
X409500Y371850D02*
D03*
Y378150D02*
D03*
X333500Y304350D02*
D03*
Y310650D02*
D03*
D21*
X324016Y410236D02*
D03*
X320079D02*
D03*
D22*
X378126Y321035D02*
D03*
X369268Y316980D02*
D03*
Y325091D02*
D03*
D23*
X301000Y321512D02*
D03*
X323000D02*
D03*
X301000Y310488D02*
D03*
X323000D02*
D03*
D24*
X287000Y417500D02*
D03*
Y410807D02*
D03*
D25*
X311300Y410300D02*
D03*
Y414000D02*
D03*
Y417700D02*
D03*
X301700D02*
D03*
Y414000D02*
D03*
Y410300D02*
D03*
D26*
X409350Y364500D02*
D03*
X415650D02*
D03*
D27*
X401724Y382598D02*
D03*
Y376299D02*
D03*
Y379449D02*
D03*
Y370000D02*
D03*
Y373150D02*
D03*
Y366850D02*
D03*
Y360551D02*
D03*
Y363701D02*
D03*
Y357402D02*
D03*
Y351102D02*
D03*
Y354252D02*
D03*
X357000Y382598D02*
D03*
Y376299D02*
D03*
Y379449D02*
D03*
Y373150D02*
D03*
Y366850D02*
D03*
Y370000D02*
D03*
Y360551D02*
D03*
Y363701D02*
D03*
Y354252D02*
D03*
Y357402D02*
D03*
Y351102D02*
D03*
D28*
X395110Y389213D02*
D03*
X391961D02*
D03*
X388811D02*
D03*
X385661D02*
D03*
X388811Y344488D02*
D03*
X385661D02*
D03*
X395110D02*
D03*
X391961D02*
D03*
X373063Y389213D02*
D03*
X376213D02*
D03*
X369913D02*
D03*
X382512D02*
D03*
X379362D02*
D03*
X366764D02*
D03*
X363614D02*
D03*
X373063Y344488D02*
D03*
X376213D02*
D03*
X382512D02*
D03*
X379362D02*
D03*
X369913D02*
D03*
X366764D02*
D03*
X363614D02*
D03*
D29*
X418500Y371791D02*
D03*
Y378209D02*
D03*
D30*
X342000Y371000D02*
D03*
X347905D02*
D03*
D31*
X334000Y352043D02*
D03*
Y344957D02*
D03*
X334000Y371957D02*
D03*
Y379043D02*
D03*
X429500Y345957D02*
D03*
Y353043D02*
D03*
X429500Y370587D02*
D03*
Y363500D02*
D03*
D32*
X440000Y353157D02*
D03*
Y363000D02*
D03*
D33*
X255118Y269055D02*
D03*
Y229055D02*
D03*
Y239055D02*
D03*
Y259055D02*
D03*
Y249055D02*
D03*
X392000Y405500D02*
D03*
X402000D02*
D03*
X382000D02*
D03*
Y415500D02*
D03*
X392000D02*
D03*
X402000D02*
D03*
X282874Y374410D02*
D03*
X292874D02*
D03*
X282874Y364409D02*
D03*
X292874Y384409D02*
D03*
X282874D02*
D03*
D34*
X437008Y213006D02*
D03*
X429134D02*
D03*
X444882D02*
D03*
X413386D02*
D03*
X421260D02*
D03*
X437008Y299606D02*
D03*
X429134D02*
D03*
X444882D02*
D03*
X413386D02*
D03*
X421260D02*
D03*
X397638Y213006D02*
D03*
X389764D02*
D03*
X405512D02*
D03*
X374016D02*
D03*
X381890D02*
D03*
X397638Y299606D02*
D03*
X389764D02*
D03*
X405512D02*
D03*
X374016D02*
D03*
X381890D02*
D03*
X323000Y352000D02*
D03*
Y371213D02*
D03*
D35*
X292874Y364409D02*
D03*
D36*
X219252Y443622D02*
D03*
X209252Y413622D02*
D03*
X229252D02*
D03*
Y241339D02*
D03*
X209252D02*
D03*
X219252Y211339D02*
D03*
M02*
