G04*
G04 #@! TF.GenerationSoftware,Altium Limited,Altium Designer,19.1.5 (86)*
G04*
G04 Layer_Physical_Order=2*
G04 Layer_Color=16711680*
%FSLAX25Y25*%
%MOIN*%
G70*
G01*
G75*
%ADD10C,0.00984*%
%ADD53C,0.07874*%
%ADD54C,0.06000*%
%ADD55R,0.07874X0.07874*%
G04:AMPARAMS|DCode=56|XSize=78.74mil|YSize=118.11mil|CornerRadius=19.68mil|HoleSize=0mil|Usage=FLASHONLY|Rotation=270.000|XOffset=0mil|YOffset=0mil|HoleType=Round|Shape=RoundedRectangle|*
%AMROUNDEDRECTD56*
21,1,0.07874,0.07874,0,0,270.0*
21,1,0.03937,0.11811,0,0,270.0*
1,1,0.03937,-0.03937,-0.01968*
1,1,0.03937,-0.03937,0.01968*
1,1,0.03937,0.03937,0.01968*
1,1,0.03937,0.03937,-0.01968*
%
%ADD56ROUNDEDRECTD56*%
%ADD57C,0.02362*%
D10*
X418500Y385000D02*
Y393705D01*
X413779Y398425D02*
X418500Y393705D01*
X373425Y398425D02*
X413779D01*
X276772Y413772D02*
X294087D01*
X294094Y413779D01*
X298228Y421260D02*
X311614D01*
X294094Y417126D02*
X298228Y421260D01*
X294094Y413779D02*
Y417126D01*
X276772Y402953D02*
X283858Y395866D01*
X276772Y402953D02*
Y413772D01*
X328346Y410433D02*
X347529D01*
X328346D02*
X328543Y410630D01*
X328150Y410236D02*
X328346Y410433D01*
X283858Y395866D02*
X393701D01*
X248819Y283465D02*
Y329253D01*
X248228Y329844D02*
X248819Y329253D01*
X248228Y329844D02*
Y330217D01*
X248819Y283465D02*
X266339Y265945D01*
Y229134D02*
Y265945D01*
X350500Y312500D02*
X381161D01*
X389697Y321035D01*
X345000Y362205D02*
Y377000D01*
Y355500D02*
Y362205D01*
X303543Y371063D02*
Y384055D01*
Y371063D02*
X312402Y362205D01*
X345000D01*
X310039Y376181D02*
X327953D01*
X333661Y381890D01*
X344094D01*
X363189Y329331D02*
Y366500D01*
Y325197D02*
Y329331D01*
X327165Y303937D02*
X352559Y329331D01*
X363189D01*
Y366500D02*
X389000D01*
X352000D02*
X363189D01*
X359537Y398425D02*
X373425D01*
Y406102D01*
X347529Y410433D02*
X359537Y398425D01*
X346500Y308500D02*
X350500Y312500D01*
X389000Y366500D02*
X407500Y385000D01*
X418500D01*
D53*
X255118Y269055D02*
D03*
Y229055D02*
D03*
Y239055D02*
D03*
Y259055D02*
D03*
Y249055D02*
D03*
X392000Y405500D02*
D03*
X402000D02*
D03*
X382000D02*
D03*
Y415500D02*
D03*
X392000D02*
D03*
X402000D02*
D03*
X282874Y374410D02*
D03*
X292874D02*
D03*
X282874Y364409D02*
D03*
X292874Y384409D02*
D03*
X282874D02*
D03*
D54*
X437008Y213006D02*
D03*
X429134D02*
D03*
X444882D02*
D03*
X413386D02*
D03*
X421260D02*
D03*
X437008Y299606D02*
D03*
X429134D02*
D03*
X444882D02*
D03*
X413386D02*
D03*
X421260D02*
D03*
X397638Y213006D02*
D03*
X389764D02*
D03*
X405512D02*
D03*
X374016D02*
D03*
X381890D02*
D03*
X397638Y299606D02*
D03*
X389764D02*
D03*
X405512D02*
D03*
X374016D02*
D03*
X381890D02*
D03*
X323000Y352000D02*
D03*
Y371213D02*
D03*
D55*
X292874Y364409D02*
D03*
D56*
X219252Y443622D02*
D03*
X209252Y413622D02*
D03*
X229252D02*
D03*
Y241339D02*
D03*
X209252D02*
D03*
X219252Y211339D02*
D03*
D57*
X323031Y325000D02*
D03*
X450787Y299213D02*
D03*
X435433Y345669D02*
D03*
X434842Y372244D02*
D03*
X315748Y413976D02*
D03*
X200394Y413386D02*
D03*
X237795Y412992D02*
D03*
X228346Y443898D02*
D03*
X262402Y259055D02*
D03*
X420276Y364567D02*
D03*
X409449Y382283D02*
D03*
X341929Y375197D02*
D03*
X339370Y379134D02*
D03*
X328150Y410236D02*
D03*
X311614Y421260D02*
D03*
X393701Y395866D02*
D03*
X294094Y413779D02*
D03*
X276772Y413772D02*
D03*
X248228Y330217D02*
D03*
X266339Y229134D02*
D03*
X363189Y325197D02*
D03*
X303543Y384055D02*
D03*
X310039Y376181D02*
D03*
X344094Y381890D02*
D03*
X327165Y303937D02*
D03*
X373425Y406102D02*
D03*
X389697Y321035D02*
D03*
X346500Y308500D02*
D03*
X345000Y355500D02*
D03*
Y377000D02*
D03*
X352000Y366500D02*
D03*
X418500Y385000D02*
D03*
M02*
