G04*
G04 #@! TF.GenerationSoftware,Altium Limited,Altium Designer,19.1.8 (144)*
G04*
G04 Layer_Color=16711935*
%FSLAX25Y25*%
%MOIN*%
G70*
G01*
G75*
%ADD35C,0.08674*%
%ADD36C,0.06800*%
%ADD37R,0.08674X0.08674*%
G04:AMPARAMS|DCode=38|XSize=86.74mil|YSize=126.11mil|CornerRadius=23.68mil|HoleSize=0mil|Usage=FLASHONLY|Rotation=270.000|XOffset=0mil|YOffset=0mil|HoleType=Round|Shape=RoundedRectangle|*
%AMROUNDEDRECTD38*
21,1,0.08674,0.07874,0,0,270.0*
21,1,0.03937,0.12611,0,0,270.0*
1,1,0.04737,-0.03937,-0.01968*
1,1,0.04737,-0.03937,0.01968*
1,1,0.04737,0.03937,0.01968*
1,1,0.04737,0.03937,-0.01968*
%
%ADD38ROUNDEDRECTD38*%
%ADD39C,0.03162*%
D35*
X255512Y259291D02*
D03*
Y269291D02*
D03*
Y249291D02*
D03*
Y239291D02*
D03*
X392000Y405500D02*
D03*
X402000D02*
D03*
X382000D02*
D03*
Y415500D02*
D03*
X392000D02*
D03*
X402000D02*
D03*
X282874Y374410D02*
D03*
X292874D02*
D03*
X282874Y364409D02*
D03*
X292874Y384409D02*
D03*
X282874D02*
D03*
D36*
X437008Y213006D02*
D03*
X429134D02*
D03*
X444882D02*
D03*
X413386D02*
D03*
X421260D02*
D03*
X437008Y299606D02*
D03*
X429134D02*
D03*
X444882D02*
D03*
X413386D02*
D03*
X421260D02*
D03*
X397638Y213006D02*
D03*
X389764D02*
D03*
X405512D02*
D03*
X374016D02*
D03*
X381890D02*
D03*
X397638Y299606D02*
D03*
X389764D02*
D03*
X405512D02*
D03*
X374016D02*
D03*
X381890D02*
D03*
X323000Y352000D02*
D03*
Y371213D02*
D03*
D37*
X292874Y364409D02*
D03*
D38*
X219252Y443622D02*
D03*
X209252Y413622D02*
D03*
X229252D02*
D03*
Y241339D02*
D03*
X209252D02*
D03*
X219252Y211339D02*
D03*
D39*
X332480Y422047D02*
D03*
X318504Y421850D02*
D03*
X373228Y418110D02*
D03*
X366339Y425000D02*
D03*
X312992Y337992D02*
D03*
X294488D02*
D03*
M02*
