M48
;Layer_Color=9474304
;FILE_FORMAT=2:5
INCH,LZ
;TYPE=PLATED
T1F00S00C0.01181
T2F00S00C0.02362
T4F00S00C0.03000
T5F00S00C0.03937
%
T01
X0327165Y0303937
X03465Y03085
X0450787Y0299213
X0262402Y0259055
X0266339Y0229134
X0248228Y0330217
X0237795Y0412992
X0200394Y0413386
X0228346Y0443898
X0276772Y0413772
X0294094Y0413779
X0311614Y042126
X0303543Y0384055
X0310039Y0376181
X033937Y0379134
X0341929Y0375197
X0345Y0377
X0344094Y038189
X0352Y03665
X0345Y03555
X0363189Y0325197
X0389697Y0321035
X0435433Y0345669
X0434842Y0372244
X0420276Y0364567
X04185Y0385
X0409449Y0382283
X0393701Y0395866
X0373425Y0406102
X032815Y0410236
X0315748Y0413976
X0323031Y0325
T02
X0323Y0371213
T04
X0323Y0352
T05
X0374016Y0213006
X038189
X0389764
X0397638
X0405512
X0413386
X042126
X0429134
X0437008
X0444882
Y0299606
X0437008
X0429134
X042126
X0413386
X0405512
X0397638
X0389764
X038189
X0374016
X0255118Y0269055
Y0259055
Y0249055
Y0239055
Y0229055
X0282874Y0364409
Y037441
X0292874
Y0364409
Y0384409
X0282874
X0382Y04055
X0392
X0402
Y04155
X0392
X0382
M30
