M48
;Layer_Color=9474304
;FILE_FORMAT=2:5
INCH,LZ
;TYPE=PLATED
T1F00S00C0.01181
T2F00S00C0.02362
T4F00S00C0.03000
T5F00S00C0.03937
%
T01
X0314961Y0204724
X0330709
X0346457
X0362205
X0377953
X0393701
X0409449
X0425197
X0440945
X0448819Y0220472
X0433071
X0417323
X0401575
X0385827
X0370079
X0354331
X0338583
X0322835
X0314961Y023622
X0330709
X0346457
X0362205
X0377953
X0393701
X0409449
X0425197
X0440945
X0448819Y0251969
X0433071
X0417323
X0401575
X0385827
X0370079
X0354331
X0338583
X0322835
X0314961Y0267717
X0330709
X0346457
X0362205
X0377953
X0393701
X0409449
X0425197
X0440945
X0448819Y0283465
X0433071
X0417323
X0401575
X0385827
X0370079
X0354331
X0338583
X0322835
X0314961Y0299213
X0330709
X0327165Y0303937
X03465Y03085
X0346457Y0299213
X0450787Y0299213
X0299213Y0299213
X0283465
X0267717
X0251969
X023622
X0220472
X0204724
X0188976
X019685Y0283465
X0212598
X0228346
X0244094
X023622Y0267717
X0220472
X0204724
X0188976
X019685Y0251969
X0212598
X0228346
X0244094
X023622Y023622
X0220472
X0228346Y0220472
X0220472Y0204724
X0204724
X0188976
X019685Y0220472
X0188976Y023622
X0266339Y0229134
X0259842Y0220472
X027559
X0291338
X0307087
X0299213Y023622
X0283465
X0291338Y0251969
X0307087
X0299213Y0267717
X0283465
X0291338Y0283465
X0307087
X027559
Y0251969
X0262402Y0259055
X0267717Y0204724
X0283465
X0299213
X0251969
X0244094Y0314961
X0228346
X0212598
X019685
X0188976Y0330709
X0204724
X0220472
X023622
X0248228Y0330217
X0251969Y0330709
X0267717
X027559Y0346457
X0291338
X0307087
X0299213Y0330709
X0307087Y0314961
X0291338
X027559
X0259842Y0346457
X0244094
X0228346
X0212598
X019685
X0188976Y0362205
X0204724
X0220472
X023622
X0251969
X0267717
X027559Y0377953
X0259842
X0244094
X0228346
X0212598
X019685
X0188976Y0393701
X0204724
X0220472
X023622
X0251969
X0267717
X0259842Y0409449
X0244094
X0237795Y0412992
X023622Y0425197
X0251969
X0267717
X0283465
X0299213
X0311614Y042126
X0307087Y0440945
X0291338
X027559
X0259842
X0244094
X0228346Y0443898
X0220472Y0425197
X0204724
X0188976
X0200394Y0413386
X019685Y0409449
Y0440945
X0276772Y0413772
X0294094Y0413779
X0303543Y0384055
X0307087Y0377953
X0310039Y0376181
X033937Y0379134
X0341929Y0375197
X0345Y0377
X0344094Y038189
X0352Y03665
X0345Y03555
X0322835Y0346457
X0323031Y0325
X0322835Y0314961
X0314961Y0330709
X0330709
X0363189Y0325197
X0377953Y0330709
X0393701
X0389697Y0321035
X0401575Y0314961
X0417323
X0433071
X0448819
X0440945Y0330709
X0425197
X0409449
X0417323Y0346457
X0401575
X0393701Y0362205
X0377953
X0385827Y0377953
X0370079
X0373425Y0406102
X0354331Y0409449
X0346457Y0425197
X0362205
X0377953
X0393701
X0409449
X0425197
X0440945
X0448819Y0440945
X0433071
X0417323
X0401575
X0385827
X0370079
X0354331
X0338583
X0322835
X0314961Y0425197
X0315748Y0413976
X032815Y0410236
X0330709Y0425197
X0393701Y0395866
X0409449Y0393701
X0409449Y0382283
X04185Y0385
X0425197Y0393701
X0440945
X0448819Y0409449
X0433071
X0417323
X0433071Y0377953
X0434842Y0372244
X0448819Y0377953
Y0346457
X0435433Y0345669
X0420276Y0364567
T02
X0323Y0371213
T04
X0323Y0352
T05
X0374016Y0213006
X038189
X0389764
X0397638
X0405512
X0413386
X042126
X0429134
X0437008
X0444882
Y0299606
X0437008
X0429134
X042126
X0413386
X0405512
X0397638
X0389764
X038189
X0374016
X0255118Y0269055
Y0259055
Y0249055
Y0239055
Y0229055
X0282874Y0364409
Y037441
X0292874
Y0364409
Y0384409
X0282874
X0382Y04055
X0392
X0402
Y04155
X0392
X0382
M30
