G04*
G04 #@! TF.GenerationSoftware,Altium Limited,Altium Designer,19.1.5 (86)*
G04*
G04 Layer_Color=65535*
%FSLAX25Y25*%
%MOIN*%
G70*
G01*
G75*
%ADD10C,0.00984*%
%ADD11C,0.00500*%
%ADD12C,0.00787*%
%ADD13C,0.00630*%
D10*
X313327Y341000D02*
G03*
X313327Y341000I-492J0D01*
G01*
D11*
X307776Y205906D02*
X319587D01*
Y216142D01*
X307776D02*
X319587D01*
X307776Y205906D02*
Y216142D01*
X386516Y205906D02*
Y216142D01*
X398327D01*
Y205906D02*
Y216142D01*
X386516Y205906D02*
X398327D01*
D12*
X371575Y241000D02*
X388000D01*
X318000D02*
X334425D01*
X318000Y346000D02*
X388000D01*
Y241000D02*
Y242425D01*
X318000Y241000D02*
Y242425D01*
X388000Y344575D02*
Y346000D01*
X318000Y344575D02*
Y346000D01*
D13*
X381889Y223228D02*
Y227164D01*
X379921Y225196D01*
X382545D01*
X383857Y226508D02*
X384513Y227164D01*
X385825D01*
X386481Y226508D01*
Y225852D01*
X385825Y225196D01*
X385169D01*
X385825D01*
X386481Y224540D01*
Y223884D01*
X385825Y223228D01*
X384513D01*
X383857Y223884D01*
X387793Y226508D02*
X388449Y227164D01*
X389761D01*
X390417Y226508D01*
Y225852D01*
X389761Y225196D01*
X389105D01*
X389761D01*
X390417Y224540D01*
Y223884D01*
X389761Y223228D01*
X388449D01*
X387793Y223884D01*
X391728Y223228D02*
Y227164D01*
X393040Y225852D01*
X394352Y227164D01*
Y223228D01*
X395664Y227164D02*
Y223228D01*
Y225196D01*
X398288D01*
Y227164D01*
Y223228D01*
X399600Y225852D02*
X402224D01*
X399600Y223228D01*
X402224D01*
X340945Y231102D02*
Y235038D01*
X342913D01*
X343569Y234382D01*
Y233070D01*
X342913Y232414D01*
X340945D01*
X342257D02*
X343569Y231102D01*
X344881D02*
Y235038D01*
X347504Y231102D01*
Y235038D01*
X351440Y231102D02*
X348816D01*
X351440Y233726D01*
Y234382D01*
X350784Y235038D01*
X349472D01*
X348816Y234382D01*
X354720Y231102D02*
Y235038D01*
X352752Y233070D01*
X355376D01*
X356688Y234382D02*
X357344Y235038D01*
X358656D01*
X359312Y234382D01*
Y233726D01*
X358656Y233070D01*
X359312Y232414D01*
Y231758D01*
X358656Y231102D01*
X357344D01*
X356688Y231758D01*
Y232414D01*
X357344Y233070D01*
X356688Y233726D01*
Y234382D01*
X357344Y233070D02*
X358656D01*
X360624Y234382D02*
X361280Y235038D01*
X362591D01*
X363247Y234382D01*
Y233726D01*
X362591Y233070D01*
X361935D01*
X362591D01*
X363247Y232414D01*
Y231758D01*
X362591Y231102D01*
X361280D01*
X360624Y231758D01*
X364559Y231102D02*
Y233726D01*
X365871Y235038D01*
X367183Y233726D01*
Y231102D01*
Y233070D01*
X364559D01*
X303543Y227295D02*
X304199Y227952D01*
X305511D01*
X306167Y227295D01*
Y226640D01*
X305511Y225984D01*
X306167Y225328D01*
Y224672D01*
X305511Y224016D01*
X304199D01*
X303543Y224672D01*
Y225328D01*
X304199Y225984D01*
X303543Y226640D01*
Y227295D01*
X304199Y225984D02*
X305511D01*
X310103Y227952D02*
X308791Y227295D01*
X307479Y225984D01*
Y224672D01*
X308135Y224016D01*
X309447D01*
X310103Y224672D01*
Y225328D01*
X309447Y225984D01*
X307479D01*
X311415Y227295D02*
X312071Y227952D01*
X313383D01*
X314039Y227295D01*
Y226640D01*
X313383Y225984D01*
X314039Y225328D01*
Y224672D01*
X313383Y224016D01*
X312071D01*
X311415Y224672D01*
Y225328D01*
X312071Y225984D01*
X311415Y226640D01*
Y227295D01*
X312071Y225984D02*
X313383D01*
X315351Y224016D02*
Y227952D01*
X316662Y226640D01*
X317974Y227952D01*
Y224016D01*
X319286Y227952D02*
Y224016D01*
Y225984D01*
X321910D01*
Y227952D01*
Y224016D01*
X323222Y226640D02*
X325846D01*
X323222Y224016D01*
X325846D01*
X294685Y291535D02*
Y295471D01*
X296653D01*
X297309Y294815D01*
Y293503D01*
X296653Y292847D01*
X294685D01*
X295997D02*
X297309Y291535D01*
X301245Y294815D02*
X300589Y295471D01*
X299277D01*
X298621Y294815D01*
Y294159D01*
X299277Y293503D01*
X300589D01*
X301245Y292847D01*
Y292191D01*
X300589Y291535D01*
X299277D01*
X298621Y292191D01*
X302556Y295471D02*
X305180D01*
X303868D01*
Y291535D01*
X296718Y255248D02*
X296062Y255904D01*
X294750D01*
X294094Y255248D01*
Y252625D01*
X294750Y251969D01*
X296062D01*
X296718Y252625D01*
Y253936D01*
X295406D01*
X298030Y251969D02*
Y255904D01*
X300654Y251969D01*
Y255904D01*
X301966D02*
Y251969D01*
X303934D01*
X304590Y252625D01*
Y255248D01*
X303934Y255904D01*
X301966D01*
X298622Y307677D02*
Y311613D01*
X300590D01*
X301246Y310957D01*
Y309645D01*
X300590Y308989D01*
X298622D01*
X299934D02*
X301246Y307677D01*
X302558Y311613D02*
X305182Y307677D01*
Y311613D02*
X302558Y307677D01*
X298228Y318700D02*
X300852D01*
X299540D01*
Y314764D01*
X302164Y318700D02*
X304788Y314764D01*
Y318700D02*
X302164Y314764D01*
X294291Y326770D02*
Y324147D01*
X295603Y322835D01*
X296915Y324147D01*
Y326770D01*
X300851Y326114D02*
X300195Y326770D01*
X298883D01*
X298227Y326114D01*
Y323491D01*
X298883Y322835D01*
X300195D01*
X300851Y323491D01*
X304787Y326114D02*
X304131Y326770D01*
X302819D01*
X302163Y326114D01*
Y323491D01*
X302819Y322835D01*
X304131D01*
X304787Y323491D01*
M02*
