M48
;Layer_Color=9474304
;FILE_FORMAT=2:5
INCH,LZ
;TYPE=PLATED
T1F00S00C0.01181
T2F00S00C0.02756
%
T01
X0312992Y0200787
X0318898
X0324803
X0330709
X0336614
X034252
X0348425
X0354331
X0360236
X0366142
X0372047
X0377953
X0383858
X0389764
X0395669
X0392716Y0206693
X0404527
X040748Y0212598
X0410433Y0218504
X0404527
X0398622
X0395669Y0224409
X0401575
X040748
X0410433Y0230315
X0404527
X0398622
X0392716
X0386811
X0380905
X0375
X0369094
X0363189
Y0218504
X0369094
X0375
X0380905
X0386811
X0377953Y0212598
X0372047
X0366142
X0360236
X0354331
X0348425
X034252
X0336614
X0330709
X0324803
X0327756Y0218504
X0333661
X0339567
X0345472
X0351378
X0357283
X0354331Y0224409
X0348425
X0351378Y0230315
X0339567
X0333661
X0327756
X032185
X0315945
X0312992Y023622
X0318898
X0324803
X0330709
X0333661Y0242126
X0327756
X0324803Y0248031
X0330709
X0336614
X034252
X0348425
X0354331
X0360236
X0366142
X0372047
X0377953
X0380905Y0242126
X0375
X0372047Y023622
X0377953
X0383858
X0389764
X0395669
X0401575
X040748
X0410433Y0242126
X0404527
X0398622
X0392716
X0379921Y0262992
X0376378Y0276575
X0331102Y0286614
X032185Y0218504
X0312992Y0212598
X0327756Y0206693
X0333661
X0339567
X0345472
X0351378
X0357283
X0363189
X0369094
X0375
X0380905
X0307086Y0200787
X0298228Y0206693
X0295275Y0212598
X0301181
X0304134Y0218504
X0298228
X0295275Y0224409
X0301181
X0307086
X0310039Y0230315
X0304134
X0298228
X0295275Y023622
X0301181
X0307086
X0310039Y0242126
X0304134
X0298228
X0295275Y0248031
X0301181
X0307086
T02
X03961Y0254134
Y0262008
Y0269882
Y0277756
Y028563
Y0293504
Y0301378
Y0309252
X03095
Y0301378
Y0293504
Y028563
Y0277756
Y0269882
Y0262008
Y0254134
Y0317126
Y0325
X03961
Y0317126
M30
